<svg version="1.1" id="Layer_1" xmlns="http://www.w3.org/2000/svg" xmlns:xlink="http://www.w3.org/1999/xlink" x="0px" y="0px"
	 width="100%" viewBox="0 0 621 402" enable-background="new 0 0 621 402" xml:space="preserve">
<path fill="#000000" opacity="1.000000" stroke="none" 
	d="
M1.000001,317.000000 
	C1.000000,285.312439 1.000000,253.624878 1.273736,221.352966 
	C2.052477,220.183319 2.557482,219.598022 3.342912,218.715393 
	C3.714690,215.220276 3.806043,212.022491 3.924112,208.367767 
	C3.943360,160.982193 3.935891,114.053558 3.950567,66.654510 
	C3.952783,62.407413 3.932854,58.630741 3.936146,54.395088 
	C3.971982,42.541199 4.020398,31.146078 3.954391,19.751621 
	C3.945597,18.233601 3.356545,16.718941 3.024636,14.771526 
	C3.022185,12.618251 3.031309,10.896173 3.421141,9.087568 
	C8.172435,7.008882 12.543020,5.016721 17.269855,3.069064 
	C18.749905,3.409533 19.873705,3.705499 21.466255,4.012302 
	C40.294071,3.959765 58.653141,3.896390 77.468788,3.906243 
	C242.962616,3.985751 407.999847,3.995799 573.037109,3.991379 
	C586.687439,3.991014 600.337830,3.892635 614.429688,3.904661 
	C616.132629,3.969527 617.393982,3.969527 619.166748,3.969527 
	C619.166748,16.989830 619.166748,29.497599 619.087036,42.467636 
	C618.999207,115.823357 618.976318,188.716812 618.992004,261.610260 
	C618.996887,284.405060 619.105652,307.199890 619.105103,330.460114 
	C619.011230,353.962585 618.979126,376.999603 618.985962,400.030670 
	C619.024963,400.024689 619.035767,399.946472 618.566528,399.976624 
	C606.771179,399.998810 595.445007,399.984802 584.118896,399.983887 
	C390.736115,399.968231 197.353302,399.954254 3.978552,399.978333 
	C3.986597,400.016785 4.065130,400.014832 4.028596,399.545410 
	C3.964866,372.999847 3.944638,346.923706 3.880744,320.847656 
	C3.878566,319.958740 3.437842,319.070892 2.918582,318.114258 
	C2.444203,318.014221 2.252768,317.982483 1.951444,317.725952 
	C1.561037,317.334106 1.280519,317.167053 1.000001,317.000000 
M241.003677,40.994568 
	C241.003677,40.994568 240.967422,40.948082 240.262421,40.944214 
	C239.823792,41.611542 239.385178,42.278870 239.000000,43.000000 
	C239.000000,43.000000 238.945557,42.946545 238.185501,42.955242 
	C237.202209,45.322666 236.218918,47.690090 235.069443,50.531612 
	C235.044464,50.697197 235.019470,50.862785 234.173538,51.347450 
	C234.117065,51.841785 234.011200,52.336117 234.011139,52.830463 
	C234.002396,119.410263 233.996368,185.990067 234.042038,252.569839 
	C234.042816,253.705399 234.673477,254.840546 235.059845,256.442352 
	C235.059845,256.442352 235.230072,256.879456 235.087051,257.670227 
	C236.649185,264.964111 238.410995,266.853333 245.744308,267.996094 
	C248.530807,268.430298 251.448502,268.004486 254.306412,268.001953 
	C264.280853,267.993073 274.255310,268.012848 284.229736,267.994843 
	C316.476318,267.936646 348.722870,267.866425 381.447968,267.937317 
	C381.447968,267.937317 381.936951,268.029510 382.096191,268.514099 
	C382.418365,268.352325 382.740570,268.190552 383.687622,267.962372 
	C384.102264,267.912323 384.516876,267.862274 385.755798,267.976715 
	C388.667267,268.156433 391.686737,268.604919 393.734406,264.712891 
	C398.966187,260.883270 396.461121,254.917618 397.915497,249.077072 
	C397.912903,240.343979 397.910309,231.610870 397.985107,221.958725 
	C397.927917,196.651215 397.870758,171.343719 397.934143,145.102783 
	C397.893768,139.390961 397.853424,133.679153 397.969330,127.043518 
	C397.945068,119.040726 397.920837,111.037933 398.061462,102.106018 
	C398.049896,86.552063 398.060760,70.997993 397.981964,55.444386 
	C397.976013,54.269817 397.332092,53.098484 396.988556,51.122208 
	C396.623047,43.537838 392.077881,39.062199 384.610229,39.046585 
	C368.577118,39.013069 352.543884,39.001625 336.510742,39.020584 
	C306.677765,39.055862 276.844757,39.119320 246.271561,39.024113 
	C245.167542,39.339508 244.063522,39.654907 243.002075,39.998695 
	C243.002075,39.998695 242.987961,39.949326 242.364700,39.974068 
	C241.895264,40.303841 241.425842,40.633617 241.003677,40.994568 
M176.016846,294.032135 
	C176.011703,310.829956 175.983856,327.627869 176.040329,344.425507 
	C176.045380,345.926239 176.597443,347.425171 177.805267,348.973541 
	C179.931931,348.934845 182.058578,348.896149 185.026093,348.918854 
	C185.320862,347.590546 185.847961,346.266388 185.871765,344.933228 
	C186.002136,337.631592 186.009064,330.327728 186.988174,323.007111 
	C192.965851,323.005157 198.947449,323.121429 204.918610,322.923096 
	C206.534027,322.869446 209.270050,322.142944 209.489212,321.239502 
	C210.036545,318.983276 209.982437,316.198792 209.045090,314.137756 
	C208.622696,313.209015 205.509613,313.224518 203.633636,313.288635 
	C197.934128,313.483398 192.242569,313.910767 186.303162,314.262054 
	C186.303162,309.736481 186.303162,306.178497 186.303162,302.011688 
	C192.686157,302.011688 198.787811,301.839844 204.873901,302.073547 
	C208.781845,302.223541 210.464539,300.801788 210.016464,296.886200 
	C209.866028,295.571533 209.909988,294.234589 209.384094,292.241669 
	C198.953140,292.171844 188.522202,292.082275 178.091232,292.079132 
	C177.435562,292.078949 176.779694,292.753906 176.016846,294.032135 
M141.106766,292.465881 
	C141.072784,302.840271 141.077087,313.215057 140.961639,323.588531 
	C140.945206,325.065125 140.347580,326.535278 139.324982,327.873352 
	C137.597260,326.212952 135.824417,324.596680 134.149200,322.884888 
	C123.724617,312.232605 113.321922,301.558929 102.567863,290.170990 
	C99.462372,289.515961 100.008698,291.714478 100.007889,293.462952 
	C100.000198,310.092377 99.970100,326.721893 100.032677,343.351074 
	C100.039635,345.200989 100.582794,347.048859 101.786453,348.962677 
	C103.913422,348.931427 106.040398,348.900146 109.016434,348.948578 
	C109.339531,347.460999 109.927841,345.976013 109.942245,344.485443 
	C110.029099,335.497986 109.938011,326.508789 110.030067,317.521423 
	C110.045250,316.038788 110.670288,314.562439 111.350235,313.660583 
	C116.198280,318.587555 121.055252,323.505798 125.892296,328.443573 
	C133.637314,336.349854 141.369125,344.269043 149.106522,352.182739 
	C149.589844,351.972382 150.073181,351.762024 150.556519,351.551666 
	C150.687241,349.348297 150.817978,347.144928 151.006622,344.015625 
	C151.006622,326.754761 151.006622,309.493896 151.006622,292.107849 
	C147.522156,292.107849 144.705963,292.107849 141.106766,292.465881 
M410.301636,44.185654 
	C409.874146,45.911591 409.074402,47.637192 409.072815,49.363522 
	C409.009644,118.753578 409.006012,188.143707 409.100128,257.533691 
	C409.102203,259.068695 410.324402,260.602020 411.061005,262.832397 
	C413.659943,264.543915 416.137787,267.454803 418.881531,267.731720 
	C425.835907,268.433594 432.909576,267.947388 439.935455,267.948425 
	C479.552094,267.954315 519.168701,267.956909 558.785339,267.976959 
	C567.341187,267.981262 570.956726,264.382843 570.958496,255.641510 
	C570.970886,195.382965 570.970032,135.124420 570.971069,74.865883 
	C570.971191,66.709358 571.263733,58.534252 570.770203,50.407272 
	C570.615845,47.866695 568.323669,45.455959 566.718506,42.325253 
	C563.391113,41.221214 560.069092,39.175713 556.735535,39.156799 
	C517.591064,38.934666 478.444946,39.044212 439.299347,38.979851 
	C434.888458,38.972599 430.403564,37.799381 426.087067,38.307003 
	C420.770142,38.932281 414.715088,38.352646 410.301636,44.185654 
M240.736771,349.011932 
	C244.298370,349.008362 243.979813,346.424286 243.986832,344.088959 
	C244.002136,338.994507 243.991547,333.899994 243.991547,327.914398 
	C248.172806,333.743073 251.798767,338.339417 254.915421,343.258484 
	C258.796021,349.383301 261.494812,350.502747 269.390656,347.794525 
	C264.423065,340.299225 259.537903,332.928253 254.557526,325.413635 
	C257.063507,324.301361 259.065552,323.423523 261.058746,322.526062 
	C267.336090,319.699707 272.261627,306.096191 264.911285,299.213409 
	C260.821991,295.384216 256.235504,293.163544 249.989563,292.025543 
	C244.756958,292.025543 239.524353,292.025543 234.256042,292.025543 
	C234.256042,311.337646 234.256042,329.995819 234.256042,348.919952 
	C236.316574,348.919952 238.111923,348.919952 240.736771,349.011932 
M219.999908,44.000130 
	C219.999908,44.000130 220.039932,43.969681 220.004333,43.213585 
	C219.438995,42.485313 218.981384,41.260330 218.290588,41.110504 
	C214.223907,40.228485 210.102921,39.596931 205.522888,38.176170 
	C190.718063,38.119129 175.913223,38.049984 161.108383,38.042641 
	C160.406326,38.042294 159.704025,38.589981 158.070114,38.993202 
	C130.026855,39.007767 101.980072,39.272041 73.942574,38.876976 
	C66.053925,38.765816 59.923370,45.510605 61.080929,53.996243 
	C61.057419,112.319504 61.033268,170.642776 61.018448,228.966034 
	C61.018280,229.628494 61.139267,230.290985 61.074547,231.888336 
	C61.060673,239.720108 60.989449,247.552322 61.051792,255.383484 
	C61.098354,261.231995 64.608200,267.041565 68.891548,267.804932 
	C72.917542,268.522369 77.062164,268.940491 81.147102,268.889587 
	C91.787415,268.757050 102.425308,267.970581 113.061142,268.025940 
	C143.495392,268.184296 173.927704,268.682953 204.361694,268.938049 
	C216.177032,269.037109 220.860077,266.288666 223.950378,257.143463 
	C223.965118,189.068756 223.985626,120.994064 223.952591,52.919384 
	C223.951935,51.582211 223.322998,50.245335 222.983215,48.171192 
	C221.999237,46.767715 221.015259,45.364239 219.999908,44.000130 
M568.010376,296.243439 
	C567.013245,295.166473 566.200684,293.617920 564.970520,293.136414 
	C563.552856,292.581604 561.766479,292.969147 559.684692,292.325195 
	C559.466980,293.722626 559.069275,295.118988 559.060669,296.517700 
	C559.004272,305.658813 559.032227,314.800446 558.875916,324.710938 
	C558.774902,326.032959 558.673889,327.355011 558.572876,328.677032 
	C558.060242,328.941284 557.547607,329.205536 557.035034,329.469788 
	C555.952271,328.006073 555.045776,326.361542 553.759216,325.106873 
	C542.035156,313.673798 530.245056,302.308624 517.967407,290.230072 
	C517.645691,290.987976 517.045471,291.745026 517.043152,292.503876 
	C516.988403,310.474091 516.985718,328.444550 517.034241,346.414795 
	C517.036499,347.250824 517.600769,348.085388 518.830200,348.961823 
	C521.416504,348.961823 524.002869,348.961823 527.231689,348.961823 
	C527.231689,337.024109 527.231689,325.683380 527.231689,314.595367 
	C540.447205,327.314911 553.462891,339.842072 567.334412,353.192963 
	C568.123596,350.511688 568.858704,349.206512 568.827576,347.919891 
	C568.665955,341.246094 568.308716,334.577057 568.847107,327.621216 
	C568.897217,318.067139 568.965942,308.513062 568.955078,298.959076 
	C568.954346,298.334320 568.344482,297.710297 568.010376,296.243439 
M471.675293,349.185638 
	C482.611816,346.585632 489.148651,339.527069 492.486206,329.010742 
	C496.232300,317.207245 491.558319,304.473846 481.672913,297.192261 
	C474.386414,291.825012 466.405823,290.991791 457.849731,290.934235 
	C446.397217,290.857269 438.810242,297.227295 433.638855,306.128998 
	C426.431152,318.535980 428.961395,332.180237 438.799561,342.240143 
	C446.561371,350.176880 461.966797,353.381653 471.675293,349.185638 
M405.067322,303.518555 
	C407.728424,304.472931 409.134766,303.163452 408.878571,300.720520 
	C408.621460,298.268524 407.989014,294.069855 406.809509,293.804962 
	C401.234955,292.552948 395.910065,289.569031 389.785736,290.915680 
	C386.453918,291.648285 382.668488,290.728668 379.520630,291.812195 
	C368.742218,295.522003 361.404358,302.740784 359.111755,314.299316 
	C357.045288,324.717804 359.481567,334.022888 367.098999,341.441772 
	C377.488403,351.560303 394.664093,354.144714 407.312683,347.863007 
	C408.121918,347.461151 408.823547,346.097870 408.907318,345.124359 
	C409.128510,342.553040 408.982208,339.950134 408.982208,336.602600 
	C406.391693,337.353119 404.686523,337.781128 403.025146,338.339539 
	C394.237946,341.292694 385.565308,343.341034 377.412231,336.565063 
	C372.305634,332.320953 368.075714,327.034119 368.334686,320.505798 
	C368.590149,314.066132 371.975067,308.223053 377.674652,304.279053 
	C386.350342,298.275696 395.311157,299.619568 405.067322,303.518555 
M330.016876,318.523010 
	C325.456543,309.007721 320.896210,299.492462 315.857697,288.979370 
	C306.553375,309.281036 297.761719,328.464203 288.529999,348.607544 
	C293.711914,348.772400 298.222809,350.722504 300.007019,344.977539 
	C302.933533,335.554474 309.585785,333.461823 318.351654,334.956085 
	C319.160950,335.094055 320.025330,335.056885 320.846130,334.955383 
	C325.798920,334.343079 328.447418,336.488586 329.869476,341.314789 
	C332.136993,349.010284 334.920227,350.294617 343.665741,347.914398 
	C339.140350,338.260071 334.685822,328.756897 330.016876,318.523010 
M73.985809,325.500000 
	C73.985809,314.435791 73.985809,303.371582 73.985809,292.217285 
	C70.309120,292.217285 67.392868,292.217285 64.263062,292.217285 
	C64.263062,311.163788 64.263062,329.842743 64.263062,348.683716 
	C67.573280,348.683716 70.612701,348.683716 73.985794,348.683716 
	C73.985794,341.067810 73.985794,333.783875 73.985809,325.500000 
z"/>
<path fill="#313131" opacity="1.000000" stroke="none" 
	d="
M620.000000,1.000006 
	C620.666687,1.333341 621.783630,1.548025 621.908997,2.023978 
	C622.196472,3.114910 622.000000,4.333333 622.000000,5.500000 
	C622.000000,138.000000 622.000000,270.500000 622.000000,403.000000 
	C416.500000,403.000000 211.000000,403.006317 5.500102,402.858521 
	C4.210803,402.857574 0.872537,405.328461 1.304365,400.164612 
	C2.427531,399.557739 3.246331,399.786285 4.065131,400.014832 
	C4.065130,400.014832 3.986597,400.016785 4.162047,400.372375 
	C6.490848,400.832123 8.644199,401.027100 10.797551,401.027100 
	C66.269440,401.027039 121.741325,400.991852 177.213211,400.992676 
	C322.472839,400.994751 467.732452,401.015320 612.992065,400.976929 
	C615.006714,400.976410 617.021179,400.304871 619.035767,399.946472 
	C619.035767,399.946472 619.024963,400.024689 619.354736,399.806061 
	C619.720581,376.388550 619.756531,353.189636 619.860229,329.527252 
	C619.939514,243.526642 619.956848,157.989532 619.954895,72.452415 
	C619.954712,62.304672 619.849365,52.156925 619.841064,41.542057 
	C619.908997,29.936562 619.965942,18.797991 619.906006,7.660044 
	C619.897522,6.082455 619.320068,4.507926 619.105042,2.676713 
	C619.469482,1.947631 619.734741,1.473819 620.000000,1.000006 
z"/>
<path fill="#353535" opacity="1.000000" stroke="none" 
	d="
M619.537354,1.000003 
	C619.734741,1.473819 619.469482,1.947631 618.686401,2.701674 
	C616.773315,3.041587 615.378113,3.101270 613.526978,3.084496 
	C454.700043,2.995485 296.329010,2.975752 137.957947,2.979259 
	C117.644569,2.979709 97.331200,3.100986 76.551544,3.103284 
	C59.049751,3.035777 42.014164,3.009594 24.978878,3.068936 
	C23.650686,3.073562 22.324581,3.676569 20.997505,4.001465 
	C19.873705,3.705499 18.749905,3.409533 16.845835,3.099246 
	C15.377043,2.389949 14.688521,1.694975 14.000000,1.000000 
	C215.691574,1.000000 417.383148,1.000000 619.537354,1.000003 
z"/>
<path fill="#313131" opacity="1.000000" stroke="none" 
	d="
M3.062484,219.012726 
	C2.557482,219.598022 2.052477,220.183319 1.273736,220.884308 
	C1.000000,149.979111 1.000000,78.958206 1.216149,7.189192 
	C1.968344,7.352078 2.504389,8.263086 3.040433,9.174094 
	C3.031309,10.896173 3.022185,12.618251 3.077399,15.206678 
	C3.055470,18.727188 2.969203,21.381346 2.730057,24.121754 
	C2.685876,24.462597 2.794574,24.717190 2.970770,25.438023 
	C3.078889,35.566784 3.119509,45.229305 2.838573,55.168869 
	C2.721746,59.324711 2.926478,63.203506 3.107851,67.545181 
	C3.123727,114.960327 3.162961,161.912582 2.877010,209.130188 
	C2.722043,212.601242 2.892261,215.806992 3.062484,219.012726 
z"/>
<path fill="#313131" opacity="1.000000" stroke="none" 
	d="
M2.061333,317.950745 
	C2.252768,317.982483 2.444203,318.014221 2.852010,318.566284 
	C3.068267,344.635651 3.093663,370.184845 2.980500,395.733368 
	C2.975664,396.825165 1.689346,397.911255 1.000000,399.000000 
	C1.000000,372.312439 1.000000,345.624878 1.265433,318.458496 
	C1.707688,317.970001 1.884511,317.960358 2.061333,317.950745 
z"/>
<path fill="#A0A0A0" opacity="1.000000" stroke="none" 
	d="
M1.000000,399.250000 
	C1.689346,397.911255 2.975664,396.825165 2.980500,395.733368 
	C3.093663,370.184845 3.068267,344.635651 3.134955,318.634583 
	C3.437842,319.070892 3.878566,319.958740 3.880744,320.847656 
	C3.944638,346.923706 3.964866,372.999847 4.028597,399.545410 
	C3.246331,399.786285 2.427531,399.557739 1.304365,399.664612 
	C1.000000,400.000000 1.000000,399.500000 1.000000,399.250000 
z"/>
<path fill="#EFEEDE" opacity="1.000000" stroke="none" 
	d="
M3.421141,9.087568 
	C2.504389,8.263086 1.968344,7.352078 1.216149,6.720535 
	C1.000000,6.555555 1.000000,6.111111 1.366157,5.539103 
	C4.243893,4.404620 6.755473,3.397701 9.668777,2.499353 
	C10.380333,2.071951 10.690166,1.535975 11.000000,1.000000 
	C11.750000,1.000000 12.500000,1.000000 13.625000,1.000000 
	C14.688521,1.694975 15.377043,2.389949 16.489586,3.054742 
	C12.543020,5.016721 8.172435,7.008882 3.421141,9.087568 
z"/>
<path fill="#000000" opacity="1.000000" stroke="none" 
	d="
M9.267053,2.390781 
	C6.755473,3.397701 4.243893,4.404620 1.366157,5.205770 
	C1.000000,3.723417 1.000000,2.446833 1.000000,1.000000 
	C3.335620,1.000000 5.673077,1.000000 8.530905,1.355592 
	C9.123203,1.937716 9.195128,2.164248 9.267053,2.390781 
z"/>
<path fill="#353535" opacity="1.000000" stroke="none" 
	d="
M9.668777,2.499353 
	C9.195128,2.164248 9.123203,1.937716 9.025639,1.355592 
	C9.444445,1.000000 9.888889,1.000000 10.666667,1.000000 
	C10.690166,1.535975 10.380333,2.071951 9.668777,2.499353 
z"/>
<path fill="#232223" opacity="1.000000" stroke="none" 
	d="
M1.951444,317.725952 
	C1.884511,317.960358 1.707688,317.970001 1.265433,317.989807 
	C1.000000,318.000000 1.000000,317.500000 1.000001,317.250000 
	C1.280519,317.167053 1.561037,317.334106 1.951444,317.725952 
z"/>
<path fill="#EB3237" opacity="1.000000" stroke="none" 
	d="
M381.936951,268.029510 
	C381.936951,268.029510 381.447968,267.937317 380.884491,267.618835 
	C379.500458,267.204865 378.679932,267.026093 377.859344,267.025787 
	C334.919159,267.008331 291.978973,267.012238 249.038773,266.990784 
	C245.458054,266.988983 242.209961,266.411560 240.114548,262.821259 
	C238.838638,260.635101 236.881317,258.846588 235.230072,256.879456 
	C235.230072,256.879456 235.059845,256.442352 235.059479,255.977722 
	C235.059128,255.513092 235.194305,255.067764 235.449829,254.733398 
	C235.809021,253.413925 236.003281,252.428818 236.003418,251.443695 
	C236.012634,186.368378 236.011353,121.293045 235.967010,56.217747 
	C235.966034,54.790428 235.456879,53.363449 235.117767,51.713398 
	C235.050766,51.490486 234.994476,51.028374 234.994476,51.028374 
	C235.019470,50.862785 235.044464,50.697197 235.375534,50.163094 
	C236.116364,49.522633 236.551102,49.250687 237.206879,48.875923 
	C237.706360,48.572636 237.876846,48.303715 237.956512,47.595764 
	C238.297607,45.798977 238.621582,44.372761 238.945557,42.946545 
	C238.945557,42.946545 239.000000,43.000000 239.309570,42.968292 
	C240.068558,42.273750 240.517990,41.610920 240.967422,40.948082 
	C240.967422,40.948082 241.003677,40.994568 241.292114,40.986496 
	C242.049698,40.635395 242.518829,40.292358 242.987961,39.949326 
	C242.987961,39.949326 243.002075,39.998695 243.358353,40.014725 
	C244.471771,40.028488 245.228912,40.026222 246.081390,40.185963 
	C246.448563,40.229660 246.720428,40.111351 246.995911,39.996220 
	C246.999542,39.999393 246.994080,39.991974 247.410858,39.997536 
	C249.216843,40.013454 250.606079,40.023804 251.996948,40.427307 
	C251.997696,41.871075 251.996780,42.921680 251.568909,43.980736 
	C247.462494,44.071507 243.171112,43.138145 242.623123,49.002068 
	C242.183701,50.028049 242.055405,50.986263 241.952026,52.380112 
	C242.075150,54.838806 242.173386,56.861870 242.163452,59.280357 
	C242.086960,60.760128 242.118622,61.844471 242.088699,63.330563 
	C242.036224,64.811447 242.045349,65.890587 242.028198,67.308441 
	C241.999588,68.099831 241.997269,68.552513 241.995789,69.427704 
	C241.812408,74.141426 245.044037,72.959137 247.259598,72.961388 
	C293.182983,73.008018 339.106384,72.996620 385.029816,72.992615 
	C386.193634,72.992508 387.810455,73.407555 388.415375,72.813599 
	C389.328918,71.916626 389.536682,70.300781 390.037292,68.658340 
	C390.018494,67.883240 390.006744,67.440239 390.010559,66.619911 
	C390.004364,65.487907 389.982605,64.733231 389.992950,63.579529 
	C390.168488,62.127586 390.311890,61.074673 390.779938,59.889858 
	C390.709259,56.512802 390.313965,53.267643 389.954956,50.030727 
	C389.991272,50.038967 389.937012,50.089935 389.966461,49.742016 
	C390.000671,48.929619 390.005432,48.465145 390.338440,47.953823 
	C391.775726,47.271423 392.884827,46.635864 394.281921,46.274132 
	C395.308472,51.057407 396.046997,55.566853 396.848633,60.534431 
	C396.880768,68.984581 396.849731,76.976585 396.561584,85.296394 
	C396.198914,86.607872 396.001373,87.591522 396.001038,88.575241 
	C395.985809,133.641464 395.980225,178.707687 396.022705,223.773895 
	C396.024048,225.198547 396.541199,226.622711 396.859009,228.509399 
	C396.878357,235.621857 396.856567,242.272034 396.586182,249.238785 
	C396.969971,255.276993 393.976379,259.964600 391.581665,264.992371 
	C389.117065,265.974548 387.024292,266.893372 384.931519,267.812195 
	C384.516876,267.862274 384.102264,267.912323 383.093658,267.985718 
	C382.312103,268.015869 382.124542,268.022705 381.936951,268.029510 
M337.743622,153.163956 
	C328.186188,153.074478 318.628723,152.985001 308.334290,152.478104 
	C308.249146,147.521469 307.921265,142.554108 308.139282,137.610855 
	C308.422791,131.182724 313.314117,126.219208 320.928223,125.018028 
	C329.041779,125.042137 337.156158,125.137207 345.268341,125.043869 
	C347.486725,125.018356 349.698547,124.427353 352.030823,123.217888 
	C351.751495,118.139671 351.472137,113.061447 351.666656,107.574280 
	C351.419281,106.712524 351.171875,105.850777 350.994507,105.011490 
	C350.994507,105.011490 350.969055,105.080467 351.081482,104.542152 
	C351.054016,104.360916 351.026520,104.179672 350.411713,103.404572 
	C343.988159,103.274681 337.563629,103.014870 331.141479,103.064751 
	C327.424377,103.093620 323.711182,103.621315 319.343903,103.962486 
	C318.910461,104.001038 318.477051,104.039589 317.610199,103.564392 
	C314.042023,104.613266 310.292847,105.277771 306.967957,106.843330 
	C304.672333,107.924225 302.963226,110.250824 300.991821,111.994370 
	C300.991821,111.994370 301.017853,111.990402 300.326324,112.022018 
	C299.717133,112.823601 299.107941,113.625191 298.416748,114.497398 
	C298.416748,114.497398 298.392853,114.602959 297.708344,114.253082 
	C291.850555,119.184814 288.063995,125.176826 287.990051,133.725586 
	C287.926971,134.136719 287.863861,134.547852 287.280273,135.497482 
	C287.176727,139.525818 287.085327,143.554489 286.967163,147.582397 
	C286.661194,158.011597 286.172211,168.438873 286.076385,178.869858 
	C285.971710,190.266052 286.173859,201.666550 286.393250,213.062271 
	C286.419830,214.441620 287.067383,216.087387 287.983490,217.112411 
	C289.805054,219.150574 307.054901,218.062546 309.616180,215.411072 
	C309.743774,205.613541 309.885529,195.816162 309.995422,186.018433 
	C310.137909,173.321548 308.472321,175.239853 321.259583,174.948746 
	C326.135742,174.837723 331.002380,174.309769 336.444489,173.933624 
	C336.634827,173.920639 336.825195,173.907639 337.471405,174.016068 
	C337.471405,174.016068 337.942566,173.992844 338.706299,173.925278 
	C339.435944,173.132446 340.836823,172.294830 340.787415,171.553940 
	C340.440460,166.352127 339.794495,161.170273 339.013794,155.403778 
	C338.921906,155.217743 338.830048,155.031708 338.732666,154.398071 
	C338.732666,154.398071 338.911346,153.987640 339.279327,153.794846 
	C339.065338,153.581146 338.851349,153.367447 337.743622,153.163956 
z"/>
<path fill="#393738" opacity="1.000000" stroke="none" 
	d="
M471.310913,349.375061 
	C461.966797,353.381653 446.561371,350.176880 438.799561,342.240143 
	C428.961395,332.180237 426.431152,318.535980 433.638855,306.128998 
	C438.810242,297.227295 446.397217,290.857269 457.849731,290.934235 
	C466.405823,290.991791 474.386414,291.825012 481.672913,297.192261 
	C491.558319,304.473846 496.232300,317.207245 492.486206,329.010742 
	C489.148651,339.527069 482.611816,346.585632 471.310913,349.375061 
M440.010040,324.918854 
	C444.369385,340.768188 464.608795,346.535980 475.471527,335.849640 
	C482.484375,328.950623 485.630981,323.406403 482.847198,315.071564 
	C480.132477,306.943390 469.597443,299.566528 461.574158,299.991913 
	C451.247589,300.539490 438.238831,307.918274 440.010040,324.918854 
z"/>
<path fill="#373636" opacity="1.000000" stroke="none" 
	d="
M518.474182,290.923645 
	C530.245056,302.308624 542.035156,313.673798 553.759216,325.106873 
	C555.045776,326.361542 555.952271,328.006073 557.035034,329.469788 
	C557.547607,329.205536 558.060242,328.941284 558.572876,328.677032 
	C558.673889,327.355011 558.774902,326.032959 559.326050,324.118225 
	C559.897583,313.332794 560.018860,303.140137 560.140198,292.947449 
	C561.766479,292.969147 563.552856,292.581604 564.970520,293.136414 
	C566.200684,293.617920 567.013245,295.166473 568.010498,297.127869 
	C568.013611,307.976959 568.016663,317.941650 568.019653,327.906342 
	C568.308716,334.577057 568.665955,341.246094 568.827576,347.919891 
	C568.858704,349.206512 568.123596,350.511688 567.334412,353.192963 
	C553.462891,339.842072 540.447205,327.314911 527.231689,314.595367 
	C527.231689,325.683380 527.231689,337.024109 527.231689,348.961823 
	C524.002869,348.961823 521.416504,348.961823 518.410828,348.479736 
	C517.994934,335.405823 517.948120,322.813660 518.022766,310.222260 
	C518.060913,303.788727 518.316772,297.356476 518.474182,290.923645 
z"/>
<path fill="#383737" opacity="1.000000" stroke="none" 
	d="
M102.911957,290.892365 
	C113.321922,301.558929 123.724617,312.232605 134.149200,322.884888 
	C135.824417,324.596680 137.597260,326.212952 139.672272,328.323792 
	C143.794662,331.084900 141.901199,327.239075 141.910217,326.702728 
	C142.099197,315.485352 142.112305,304.264984 142.599976,293.028931 
	C145.152420,293.012665 147.264893,293.012665 149.992218,293.012665 
	C149.992218,295.355438 149.992188,297.132477 149.992218,298.909485 
	C149.992371,312.534332 149.958862,326.159332 150.035004,339.783752 
	C150.044617,341.504669 150.630051,343.222382 150.948700,344.941559 
	C150.817978,347.144928 150.687241,349.348297 150.556519,351.551666 
	C150.073181,351.762024 149.589844,351.972382 149.106522,352.182739 
	C141.369125,344.269043 133.637314,336.349854 125.892296,328.443573 
	C121.055252,323.505798 116.198280,318.587555 111.034653,313.001007 
	C110.155838,313.510925 109.125771,314.671997 109.104591,315.851227 
	C108.959267,323.942505 109.098999,332.038605 108.984024,340.130859 
	C108.942589,343.046783 108.452637,345.956390 108.167358,348.868866 
	C106.040398,348.900146 103.913422,348.931427 101.367111,348.468719 
	C100.959442,330.184998 100.932640,312.394928 101.065651,294.606049 
	C101.074944,293.363617 102.268883,292.130035 102.911957,290.892365 
z"/>
<path fill="#DA3B3F" opacity="1.000000" stroke="none" 
	d="
M206.000214,38.881004 
	C210.102921,39.596931 214.223907,40.228485 218.290588,41.110504 
	C218.981384,41.260330 219.438995,42.485313 219.654358,43.570755 
	C215.420135,42.621605 211.534470,40.177929 207.651901,40.182865 
	C163.197586,40.239342 118.743607,40.653954 74.289864,41.013981 
	C67.763092,41.066841 64.037086,44.988163 63.993618,51.584572 
	C63.974949,54.417526 63.995949,57.250729 63.995960,60.083820 
	C63.996243,124.993668 63.993904,189.903503 63.999195,254.813354 
	C63.999775,261.936981 67.411919,265.970642 73.772903,265.976624 
	C119.935585,266.020203 166.098358,266.007568 212.261002,265.947662 
	C213.647278,265.945862 215.518036,265.669434 216.333603,264.769501 
	C219.685577,261.070770 222.126266,257.156067 222.108826,251.571503 
	C221.921921,191.743851 222.079620,131.915131 221.908722,72.087379 
	C221.881943,62.710129 220.686386,53.336224 220.031281,43.960766 
	C221.015259,45.364239 221.999237,46.767715 222.984131,49.015476 
	C222.988968,117.179314 222.985443,184.498871 223.031433,251.818390 
	C223.032867,253.911514 223.546783,256.004272 223.821762,258.097198 
	C220.860077,266.288666 216.177032,269.037109 204.361694,268.938049 
	C173.927704,268.682953 143.495392,268.184296 113.061142,268.025940 
	C102.425308,267.970581 91.787415,268.757050 81.147102,268.889587 
	C77.062164,268.940491 72.917542,268.522369 68.891548,267.804932 
	C64.608200,267.041565 61.098354,261.231995 61.051792,255.383484 
	C60.989449,247.552322 61.060673,239.720108 61.391838,231.093597 
	C61.810337,229.311401 61.999786,228.323990 62.000114,227.336502 
	C62.018913,170.693710 62.027599,114.050919 61.994946,57.408146 
	C61.994114,55.965130 61.522163,54.522385 61.269928,53.079514 
	C59.923370,45.510605 66.053925,38.765816 73.942574,38.876976 
	C101.980072,39.272041 130.026855,39.007767 159.001556,38.973381 
	C175.288742,38.929375 190.644485,38.905190 206.000214,38.881004 
z"/>
<path fill="#383737" opacity="1.000000" stroke="none" 
	d="
M250.908768,292.080292 
	C256.235504,293.163544 260.821991,295.384216 264.911285,299.213409 
	C272.261627,306.096191 267.336090,319.699707 261.058746,322.526062 
	C259.065552,323.423523 257.063507,324.301361 254.557526,325.413635 
	C259.537903,332.928253 264.423065,340.299225 269.390656,347.794525 
	C261.494812,350.502747 258.796021,349.383301 254.915421,343.258484 
	C251.798767,338.339417 248.172806,333.743073 243.991547,327.914398 
	C243.991547,333.899994 244.002136,338.994507 243.986832,344.088959 
	C243.979813,346.424286 244.298370,349.008362 240.066833,348.685211 
	C238.004852,348.042328 236.612778,347.726166 235.401642,347.451080 
	C235.401642,329.176880 235.401642,311.299957 235.401642,293.542053 
	C240.849564,293.028503 245.879166,292.554382 250.908768,292.080292 
M255.816315,303.555267 
	C252.270493,301.192169 248.496948,300.355469 244.356995,301.548523 
	C244.356995,307.072021 244.356995,312.289093 244.356995,318.366272 
	C247.529221,317.690063 250.305847,317.458099 252.800232,316.495056 
	C258.876007,314.149475 260.102966,309.317902 255.816315,303.555267 
z"/>
<path fill="#393738" opacity="1.000000" stroke="none" 
	d="
M404.722168,303.333130 
	C395.311157,299.619568 386.350342,298.275696 377.674652,304.279053 
	C371.975067,308.223053 368.590149,314.066132 368.334686,320.505798 
	C368.075714,327.034119 372.305634,332.320953 377.412231,336.565063 
	C385.565308,343.341034 394.237946,341.292694 403.025146,338.339539 
	C404.686523,337.781128 406.391693,337.353119 408.982208,336.602600 
	C408.982208,339.950134 409.128510,342.553040 408.907318,345.124359 
	C408.823547,346.097870 408.121918,347.461151 407.312683,347.863007 
	C394.664093,354.144714 377.488403,351.560303 367.098999,341.441772 
	C359.481567,334.022888 357.045288,324.717804 359.111755,314.299316 
	C361.404358,302.740784 368.742218,295.522003 379.520630,291.812195 
	C382.668488,290.728668 386.453918,291.648285 389.785736,290.915680 
	C395.910065,289.569031 401.234955,292.552948 406.809509,293.804962 
	C407.989014,294.069855 408.621460,298.268524 408.878571,300.720520 
	C409.134766,303.163452 407.728424,304.472931 404.722168,303.333130 
z"/>
<path fill="#383737" opacity="1.000000" stroke="none" 
	d="
M330.124084,318.888367 
	C334.685822,328.756897 339.140350,338.260071 343.665741,347.914398 
	C334.920227,350.294617 332.136993,349.010284 329.869476,341.314789 
	C328.447418,336.488586 325.798920,334.343079 320.846130,334.955383 
	C320.025330,335.056885 319.160950,335.094055 318.351654,334.956085 
	C309.585785,333.461823 302.933533,335.554474 300.007019,344.977539 
	C298.222809,350.722504 293.711914,348.772400 288.529999,348.607544 
	C297.761719,328.464203 306.553375,309.281036 315.857697,288.979370 
	C320.896210,299.492462 325.456543,309.007721 330.124084,318.888367 
M313.754883,327.005310 
	C315.913269,326.992371 318.132294,327.268280 320.202118,326.833588 
	C321.114594,326.641968 322.572632,324.647919 322.334503,324.084595 
	C320.664734,320.135315 318.616455,316.346100 316.192627,311.515930 
	C313.503784,316.945709 311.230927,321.535431 308.719330,326.607269 
	C310.662750,326.791687 311.773956,326.897125 313.754883,327.005310 
z"/>
<path fill="#363535" opacity="1.000000" stroke="none" 
	d="
M184.185242,348.857422 
	C182.058578,348.896149 179.931931,348.934845 177.394043,348.487335 
	C176.958893,329.672150 176.934982,311.343201 177.385880,293.004578 
	C188.528824,292.965881 199.196960,292.936890 209.865097,292.907837 
	C209.909988,294.234589 209.866028,295.571533 210.016464,296.886200 
	C210.464539,300.801788 208.781845,302.223541 204.873901,302.073547 
	C198.787811,301.839844 192.686157,302.011688 186.303162,302.011688 
	C186.303162,306.178497 186.303162,309.736481 186.303162,314.262054 
	C192.242569,313.910767 197.934128,313.483398 203.633636,313.288635 
	C205.509613,313.224518 208.622696,313.209015 209.045090,314.137756 
	C209.982437,316.198792 210.036545,318.983276 209.489212,321.239502 
	C209.270050,322.142944 206.534027,322.869446 204.918610,322.923096 
	C198.947449,323.121429 192.965851,323.005157 186.245224,322.867950 
	C185.375778,326.519958 185.305359,330.313995 185.108795,334.101532 
	C184.853424,339.022888 184.497757,343.939056 184.185242,348.857422 
z"/>
<path fill="#A0A0A0" opacity="1.000000" stroke="none" 
	d="
M618.566528,399.976624 
	C617.021179,400.304871 615.006714,400.976410 612.992065,400.976929 
	C467.732452,401.015320 322.472839,400.994751 177.213211,400.992676 
	C121.741325,400.991852 66.269440,401.027039 10.797551,401.027100 
	C8.644199,401.027100 6.490848,400.832123 4.154002,400.333954 
	C197.353302,399.954254 390.736115,399.968231 584.118896,399.983887 
	C595.445007,399.984802 606.771179,399.998810 618.566528,399.976624 
z"/>
<path fill="#DB3B40" opacity="1.000000" stroke="none" 
	d="
M567.010071,42.985794 
	C568.323669,45.455959 570.615845,47.866695 570.770203,50.407272 
	C571.263733,58.534252 570.971191,66.709358 570.971069,74.865883 
	C570.970032,135.124420 570.970886,195.382965 570.958496,255.641510 
	C570.956726,264.382843 567.341187,267.981262 558.785339,267.976959 
	C519.168701,267.956909 479.552094,267.954315 439.935455,267.948425 
	C432.909576,267.947388 425.835907,268.433594 418.881531,267.731720 
	C416.137787,267.454803 413.659943,264.543915 411.010620,262.122284 
	C410.674042,260.259338 410.387817,259.106537 410.432556,258.027100 
	C413.948792,264.253754 419.080719,267.092163 425.922455,266.822815 
	C430.143188,266.656647 434.355438,266.052704 438.572266,266.044312 
	C471.867584,265.978180 505.163116,266.006866 538.458557,266.009766 
	C544.368286,266.010284 550.308167,266.410645 556.180969,265.949585 
	C566.287354,265.156067 569.984924,260.744873 569.985046,250.474884 
	C569.985657,190.709534 569.929871,130.944077 570.042603,71.178932 
	C570.060547,61.679295 570.087891,52.265720 566.865295,43.135632 
	C566.913879,43.086010 567.010071,42.985794 567.010071,42.985794 
z"/>
<path fill="#AAAAAA" opacity="1.000000" stroke="none" 
	d="
M77.017822,3.166291 
	C97.331200,3.100986 117.644569,2.979709 137.957947,2.979259 
	C296.329010,2.975752 454.700043,2.995485 613.530396,3.254156 
	C613.989746,3.500273 613.988159,3.839796 613.988159,3.839796 
	C600.337830,3.892635 586.687439,3.991014 573.037109,3.991379 
	C407.999847,3.995799 242.962616,3.985751 77.468613,3.739549 
	C77.011864,3.499627 77.017822,3.166291 77.017822,3.166291 
z"/>
<path fill="#A4A4A4" opacity="1.000000" stroke="none" 
	d="
M619.792725,42.009182 
	C619.849365,52.156925 619.954712,62.304672 619.954895,72.452415 
	C619.956848,157.989532 619.939514,243.526642 619.703857,329.528748 
	C619.479675,329.993774 619.166809,329.994690 619.166870,329.994690 
	C619.105652,307.199890 618.996887,284.405060 618.992004,261.610260 
	C618.976318,188.716812 618.999207,115.823357 619.243530,42.468090 
	C619.479736,42.006271 619.792725,42.009182 619.792725,42.009182 
z"/>
<path fill="#C85253" opacity="1.000000" stroke="none" 
	d="
M410.101562,257.953705 
	C410.387817,259.106537 410.674042,260.259338 410.968872,261.774170 
	C410.324402,260.602020 409.102203,259.068695 409.100128,257.533691 
	C409.006012,188.143707 409.009644,118.753578 409.072815,49.363522 
	C409.074402,47.637192 409.874146,45.911591 410.961243,44.030312 
	C411.845825,43.937500 412.070801,44.000027 412.208282,44.389511 
	C411.760712,45.499264 411.400604,46.282051 410.754150,47.276035 
	C410.324646,48.660995 410.181488,49.834755 410.034790,51.338451 
	C410.033539,52.108311 410.035767,52.548233 410.026886,53.244057 
	C410.022278,53.670589 410.028809,53.841225 410.028870,54.479717 
	C410.048798,122.616287 410.075165,190.285004 410.101562,257.953705 
z"/>
<path fill="#DB3B40" opacity="1.000000" stroke="none" 
	d="
M412.295746,44.062550 
	C412.070801,44.000027 411.845825,43.937500 411.285522,43.776798 
	C414.715088,38.352646 420.770142,38.932281 426.087067,38.307003 
	C430.403564,37.799381 434.888458,38.972599 439.299347,38.979851 
	C478.444946,39.044212 517.591064,38.934666 556.735535,39.156799 
	C560.069092,39.175713 563.391113,41.221214 566.864258,42.655525 
	C567.010071,42.985794 566.913879,43.086010 566.493408,43.077156 
	C560.472717,42.689045 562.619263,46.415257 562.525269,49.080238 
	C560.752075,47.791687 559.313354,46.554249 558.059082,44.995354 
	C559.231567,43.571445 560.219788,42.468994 561.207947,41.366543 
	C561.022156,40.914101 560.836365,40.461658 560.650574,40.009216 
	C556.600830,40.009216 552.551147,40.009113 548.501404,40.009235 
	C514.267700,40.010254 480.033936,39.983360 445.800385,40.055218 
	C442.343018,40.062473 438.677063,41.565655 435.471161,40.817665 
	C427.175690,38.882198 419.687744,40.631317 412.295746,44.062550 
z"/>
<path fill="#D78385" opacity="1.000000" stroke="none" 
	d="
M223.886078,257.620331 
	C223.546783,256.004272 223.032867,253.911514 223.031433,251.818390 
	C222.985443,184.498871 222.988968,117.179314 222.986115,49.384041 
	C223.322998,50.245335 223.951935,51.582211 223.952591,52.919384 
	C223.985626,120.994064 223.965118,189.068756 223.886078,257.620331 
z"/>
<path fill="#FFFFFF" opacity="1.000000" stroke="none" 
	d="
M234.584015,51.187912 
	C234.994476,51.028374 235.050766,51.490486 235.038788,52.184280 
	C235.018646,119.280785 235.009644,185.683502 235.010315,252.086212 
	C235.010315,253.080063 235.130310,254.073914 235.194305,255.067764 
	C235.194305,255.067764 235.059128,255.513092 235.034668,255.744476 
	C234.673477,254.840546 234.042816,253.705399 234.042038,252.569839 
	C233.996368,185.990067 234.002396,119.410263 234.011139,52.830463 
	C234.011200,52.336117 234.117065,51.841785 234.584015,51.187912 
z"/>
<path fill="#D83C42" opacity="1.000000" stroke="none" 
	d="
M251.995300,40.034153 
	C250.606079,40.023804 249.216843,40.013454 247.414597,39.792351 
	C247.001572,39.581596 247.011780,39.171055 247.011780,39.171051 
	C276.844757,39.119320 306.677765,39.055862 336.510742,39.020584 
	C352.543884,39.001625 368.577118,39.013069 384.610229,39.046585 
	C392.077881,39.062199 396.623047,43.537838 396.974121,51.976830 
	C396.901642,55.246403 396.843567,57.661354 396.785492,60.076302 
	C396.046997,55.566853 395.308472,51.057407 394.085388,45.993313 
	C390.102112,41.367027 385.479065,40.016624 380.328979,40.016560 
	C337.551086,40.016022 294.773193,40.026794 251.995300,40.034153 
z"/>
<path fill="#FFB7BC" opacity="1.000000" stroke="none" 
	d="
M61.175430,53.537880 
	C61.522163,54.522385 61.994114,55.965130 61.994946,57.408146 
	C62.027599,114.050919 62.018913,170.693710 62.000114,227.336502 
	C61.999786,228.323990 61.810337,229.311401 61.456413,230.626160 
	C61.139267,230.290985 61.018280,229.628494 61.018448,228.966034 
	C61.033268,170.642776 61.057419,112.319504 61.175430,53.537880 
z"/>
<path fill="#C3464A" opacity="1.000000" stroke="none" 
	d="
M235.158569,257.274841 
	C236.881317,258.846588 238.838638,260.635101 240.114548,262.821259 
	C242.209961,266.411560 245.458054,266.988983 249.038773,266.990784 
	C291.978973,267.012238 334.919159,267.008331 377.859344,267.025787 
	C378.679932,267.026093 379.500458,267.204865 380.645233,267.550629 
	C348.722870,267.866425 316.476318,267.936646 284.229736,267.994843 
	C274.255310,268.012848 264.280853,267.993073 254.306412,268.001953 
	C251.448502,268.004486 248.530807,268.430298 245.744308,267.996094 
	C238.410995,266.853333 236.649185,264.964111 235.158569,257.274841 
z"/>
<path fill="#D83C42" opacity="1.000000" stroke="none" 
	d="
M396.817902,228.047104 
	C396.541199,226.622711 396.024048,225.198547 396.022705,223.773895 
	C395.980225,178.707687 395.985809,133.641464 396.001038,88.575241 
	C396.001373,87.591522 396.198914,86.607872 396.615356,85.765549 
	C396.952850,91.632584 396.979462,97.358269 397.007812,103.545639 
	C397.277435,111.993996 397.545258,119.980667 397.813080,127.967331 
	C397.853424,133.679153 397.893768,139.390961 397.600464,145.878616 
	C397.191681,172.052063 397.116577,197.449692 397.018066,223.282349 
	C396.935730,225.160645 396.876801,226.603867 396.817902,228.047104 
z"/>
<path fill="#AAAAAA" opacity="1.000000" stroke="none" 
	d="
M3.202196,208.864853 
	C3.162961,161.912582 3.123727,114.960327 3.308494,67.530731 
	C3.532496,67.053391 3.928423,67.124924 3.928423,67.124924 
	C3.935891,114.053558 3.943360,160.982193 3.750800,208.386230 
	C3.550771,208.861633 3.202196,208.864853 3.202196,208.864853 
z"/>
<path fill="#555455" opacity="1.000000" stroke="none" 
	d="
M73.985802,326.000000 
	C73.985794,333.783875 73.985794,341.067810 73.985794,348.683716 
	C70.612701,348.683716 67.573280,348.683716 64.263062,348.683716 
	C64.263062,329.842743 64.263062,311.163788 64.263062,292.217285 
	C67.392868,292.217285 70.309120,292.217285 73.985809,292.217285 
	C73.985809,303.371582 73.985809,314.435791 73.985802,326.000000 
M65.060272,346.093597 
	C67.484650,346.852905 69.909027,347.612244 72.572662,348.446503 
	C72.572662,329.122864 72.572662,311.246246 72.572662,293.426910 
	C69.881264,293.426910 67.653633,293.426910 65.008415,293.426910 
	C65.008415,310.951660 65.008415,328.063995 65.060272,346.093597 
z"/>
<path fill="#5F5F5F" opacity="1.000000" stroke="none" 
	d="
M250.449158,292.052917 
	C245.879166,292.554382 240.849564,293.028503 235.401642,293.542053 
	C235.401642,311.299957 235.401642,329.176880 235.401642,347.451080 
	C236.612778,347.726166 238.004852,348.042328 239.652100,348.639221 
	C238.111923,348.919952 236.316574,348.919952 234.256042,348.919952 
	C234.256042,329.995819 234.256042,311.337646 234.256042,292.025543 
	C239.524353,292.025543 244.756958,292.025543 250.449158,292.052917 
z"/>
<path fill="#FF0000" opacity="1.000000" stroke="none" 
	d="
M397.041504,222.847305 
	C397.116577,197.449692 397.191681,172.052063 397.540192,146.345337 
	C397.870758,171.343719 397.927917,196.651215 397.729370,222.425552 
	C397.473602,222.892380 397.041473,222.847305 397.041504,222.847305 
z"/>
<path fill="#A0A0A0" opacity="1.000000" stroke="none" 
	d="
M619.105103,330.460114 
	C619.166809,329.994690 619.479675,329.993774 619.636108,329.992249 
	C619.756531,353.189636 619.720581,376.388550 619.315796,399.812042 
	C618.979126,376.999603 619.011230,353.962585 619.105103,330.460114 
z"/>
<path fill="#AAAAAA" opacity="1.000000" stroke="none" 
	d="
M102.739906,290.531677 
	C102.268883,292.130035 101.074944,293.363617 101.065651,294.606049 
	C100.932640,312.394928 100.959442,330.184998 100.912537,348.436218 
	C100.582794,347.048859 100.039635,345.200989 100.032677,343.351074 
	C99.970100,326.721893 100.000198,310.092377 100.007889,293.462952 
	C100.008698,291.714478 99.462372,289.515961 102.739906,290.531677 
z"/>
<path fill="#5F5F5F" opacity="1.000000" stroke="none" 
	d="
M150.977661,344.478577 
	C150.630051,343.222382 150.044617,341.504669 150.035004,339.783752 
	C149.958862,326.159332 149.992371,312.534332 149.992218,298.909485 
	C149.992188,297.132477 149.992218,295.355438 149.992218,293.012665 
	C147.264893,293.012665 145.152420,293.012665 142.523163,292.797241 
	C142.006363,292.581848 141.889771,292.107849 141.889771,292.107849 
	C144.705963,292.107849 147.522156,292.107849 151.006622,292.107849 
	C151.006622,309.493896 151.006622,326.754761 150.977661,344.478577 
z"/>
<path fill="#A4A4A4" opacity="1.000000" stroke="none" 
	d="
M518.220825,290.576843 
	C518.316772,297.356476 518.060913,303.788727 518.022766,310.222260 
	C517.948120,322.813660 517.994934,335.405823 517.947388,348.459137 
	C517.600769,348.085388 517.036499,347.250824 517.034241,346.414795 
	C516.985718,328.444550 516.988403,310.474091 517.043152,292.503876 
	C517.045471,291.745026 517.645691,290.987976 518.220825,290.576843 
z"/>
<path fill="#A0A0A0" opacity="1.000000" stroke="none" 
	d="
M76.551544,3.103284 
	C77.017822,3.166291 77.011864,3.499627 77.012039,3.666321 
	C58.653141,3.896390 40.294071,3.959765 21.466255,4.012302 
	C22.324581,3.676569 23.650686,3.073562 24.978878,3.068936 
	C42.014164,3.009594 59.049751,3.035777 76.551544,3.103284 
z"/>
<path fill="#C2C2C2" opacity="1.000000" stroke="none" 
	d="
M176.911072,293.014221 
	C176.934982,311.343201 176.958893,329.672150 176.939148,348.463013 
	C176.597443,347.425171 176.045380,345.926239 176.040329,344.425507 
	C175.983856,327.627869 176.011703,310.829956 176.265991,293.539062 
	C176.515121,293.046021 176.911072,293.014221 176.911072,293.014221 
z"/>
<path fill="#CF6B6B" opacity="1.000000" stroke="none" 
	d="
M397.006042,103.083954 
	C396.979462,97.358269 396.952850,91.632584 396.872498,85.437744 
	C396.849731,76.976585 396.880768,68.984581 396.848633,60.534435 
	C396.843567,57.661354 396.901642,55.246403 396.972229,52.378551 
	C397.332092,53.098484 397.976013,54.269817 397.981964,55.444386 
	C398.060760,70.997993 398.049896,86.552063 397.756073,102.576492 
	C397.450684,103.046974 397.006042,103.083954 397.006042,103.083954 
z"/>
<path fill="#FF0000" opacity="1.000000" stroke="none" 
	d="
M205.761551,38.528587 
	C190.644485,38.905190 175.288742,38.929375 159.467422,38.918007 
	C159.704025,38.589981 160.406326,38.042294 161.108383,38.042641 
	C175.913223,38.049984 190.718063,38.119129 205.761551,38.528587 
z"/>
<path fill="#A0A0A0" opacity="1.000000" stroke="none" 
	d="
M619.841064,41.542057 
	C619.792725,42.009182 619.479736,42.006271 619.323242,42.005821 
	C619.166748,29.497599 619.166748,16.989830 619.166748,3.969527 
	C617.393982,3.969527 616.132629,3.969527 614.429688,3.904662 
	C613.988159,3.839796 613.989746,3.500273 613.986328,3.330613 
	C615.378113,3.101270 616.773315,3.041587 618.587280,2.956942 
	C619.320068,4.507926 619.897522,6.082455 619.906006,7.660044 
	C619.965942,18.797991 619.908997,29.936562 619.841064,41.542057 
z"/>
<path fill="#A0A0A0" opacity="1.000000" stroke="none" 
	d="
M2.882936,24.035505 
	C2.969203,21.381346 3.055470,18.727188 3.088974,15.637877 
	C3.356545,16.718941 3.945597,18.233601 3.954391,19.751621 
	C4.020398,31.146078 3.971982,42.541199 3.748868,54.422867 
	C3.538371,54.909622 3.160130,54.891823 3.160130,54.891823 
	C3.119509,45.229305 3.078889,35.566784 3.006441,25.203075 
	C2.974615,24.501884 2.882936,24.035505 2.882936,24.035505 
z"/>
<path fill="#A0A0A0" opacity="1.000000" stroke="none" 
	d="
M108.591896,348.908722 
	C108.452637,345.956390 108.942589,343.046783 108.984024,340.130859 
	C109.098999,332.038605 108.959267,323.942505 109.104591,315.851227 
	C109.125771,314.671997 110.155838,313.510925 110.866280,312.712280 
	C110.670288,314.562439 110.045250,316.038788 110.030067,317.521423 
	C109.938011,326.508789 110.029099,335.497986 109.942245,344.485443 
	C109.927841,345.976013 109.339531,347.460999 108.591896,348.908722 
z"/>
<path fill="#EFEEDE" opacity="1.000000" stroke="none" 
	d="
M141.498260,292.286865 
	C141.889771,292.107849 142.006363,292.581848 142.083191,292.813538 
	C142.112305,304.264984 142.099197,315.485352 141.910217,326.702728 
	C141.901199,327.239075 143.794662,331.084900 140.019257,328.391327 
	C140.347580,326.535278 140.945206,325.065125 140.961639,323.588531 
	C141.077087,313.215057 141.072784,302.840271 141.498260,292.286865 
z"/>
<path fill="#5F5F5F" opacity="1.000000" stroke="none" 
	d="
M177.385880,293.004578 
	C176.911072,293.014221 176.515121,293.046021 176.319519,293.080383 
	C176.779694,292.753906 177.435562,292.078949 178.091232,292.079132 
	C188.522202,292.082275 198.953140,292.171844 209.624603,292.574768 
	C199.196960,292.936890 188.528824,292.965881 177.385880,293.004578 
z"/>
<path fill="#D83C42" opacity="1.000000" stroke="none" 
	d="
M391.953522,264.929047 
	C393.976379,259.964600 396.969971,255.276993 396.707764,249.454620 
	C397.253082,249.642029 397.491486,249.861191 397.793274,250.011353 
	C396.461121,254.917618 398.966187,260.883270 393.127563,264.851135 
	C392.331665,264.969238 392.142609,264.949158 391.953522,264.929047 
z"/>
<path fill="#C2C2C2" opacity="1.000000" stroke="none" 
	d="
M559.912476,292.636322 
	C560.018860,303.140137 559.897583,313.332794 559.404419,323.733704 
	C559.032227,314.800446 559.004272,305.658813 559.060669,296.517700 
	C559.069275,295.118988 559.466980,293.722626 559.912476,292.636322 
z"/>
<path fill="#FFFFFF" opacity="1.000000" stroke="none" 
	d="
M568.433350,327.763794 
	C568.016663,317.941650 568.013611,307.976959 568.014282,297.549133 
	C568.344482,297.710297 568.954346,298.334320 568.955078,298.959076 
	C568.965942,308.513062 568.897217,318.067139 568.433350,327.763794 
z"/>
<path fill="#A0A0A0" opacity="1.000000" stroke="none" 
	d="
M184.605667,348.888153 
	C184.497757,343.939056 184.853424,339.022888 185.108795,334.101532 
	C185.305359,330.313995 185.375778,326.519958 185.780334,322.876709 
	C186.009064,330.327728 186.002136,337.631592 185.871765,344.933228 
	C185.847961,346.266388 185.320862,347.590546 184.605667,348.888153 
z"/>
<path fill="#C85253" opacity="1.000000" stroke="none" 
	d="
M397.854370,249.544220 
	C397.491486,249.861191 397.253082,249.642029 396.956390,249.138046 
	C396.856567,242.272034 396.878357,235.621857 396.859009,228.509399 
	C396.876801,226.603867 396.935730,225.160645 397.018066,223.282349 
	C397.041473,222.847305 397.473602,222.892380 397.690674,222.885071 
	C397.910309,231.610870 397.912903,240.343979 397.854370,249.544220 
z"/>
<path fill="#FF0000" opacity="1.000000" stroke="none" 
	d="
M397.007812,103.545639 
	C397.006042,103.083954 397.450684,103.046974 397.673645,103.041061 
	C397.920837,111.037933 397.945068,119.040726 397.891205,127.505424 
	C397.545258,119.980667 397.277435,111.993996 397.007812,103.545639 
z"/>
<path fill="#232223" opacity="1.000000" stroke="none" 
	d="
M2.838573,55.168869 
	C3.160130,54.891823 3.538371,54.909622 3.725648,54.881844 
	C3.932854,58.630741 3.952783,62.407413 3.950567,66.654510 
	C3.928423,67.124924 3.532496,67.053391 3.331853,67.067848 
	C2.926478,63.203506 2.721746,59.324711 2.838573,55.168869 
z"/>
<path fill="#232223" opacity="1.000000" stroke="none" 
	d="
M2.877010,209.130188 
	C3.202196,208.864853 3.550771,208.861633 3.724083,208.843170 
	C3.806043,212.022491 3.714690,215.220276 3.342908,218.715393 
	C2.892261,215.806992 2.722043,212.601242 2.877010,209.130188 
z"/>
<path fill="#C3464A" opacity="1.000000" stroke="none" 
	d="
M391.581665,264.992371 
	C392.142609,264.949158 392.331665,264.969238 392.805267,265.009766 
	C391.686737,268.604919 388.667267,268.156433 385.343658,267.894470 
	C387.024292,266.893372 389.117065,265.974548 391.581665,264.992371 
z"/>
<path fill="#C3464A" opacity="1.000000" stroke="none" 
	d="
M238.565521,42.950893 
	C238.621582,44.372761 238.297607,45.798977 237.747543,47.711781 
	C237.261841,48.402836 237.083298,48.662956 236.985840,48.978737 
	C236.551102,49.250687 236.116364,49.522633 235.458618,49.926048 
	C236.218918,47.690090 237.202209,45.322666 238.565521,42.950893 
z"/>
<path fill="#C3464A" opacity="1.000000" stroke="none" 
	d="
M246.641663,39.097584 
	C247.011780,39.171055 247.001572,39.581596 246.997833,39.786785 
	C246.994080,39.991974 246.999542,39.999393 246.744217,39.998352 
	C246.321274,40.006195 246.153671,40.015076 245.986053,40.023956 
	C245.228912,40.026222 244.471771,40.028488 243.337067,40.000526 
	C244.063522,39.654907 245.167542,39.339508 246.641663,39.097584 
z"/>
<path fill="#C3464A" opacity="1.000000" stroke="none" 
	d="
M240.614929,40.946152 
	C240.517990,41.610920 240.068558,42.273750 239.282837,42.941391 
	C239.385178,42.278870 239.823792,41.611542 240.614929,40.946152 
z"/>
<path fill="#C3464A" opacity="1.000000" stroke="none" 
	d="
M242.676331,39.961693 
	C242.518829,40.292358 242.049698,40.635395 241.268494,40.970909 
	C241.425842,40.633617 241.895264,40.303841 242.676331,39.961693 
z"/>
<path fill="#C3464A" opacity="1.000000" stroke="none" 
	d="
M382.016571,268.271790 
	C382.124542,268.022705 382.312103,268.015869 382.781250,268.018921 
	C382.740570,268.190552 382.418365,268.352325 382.016571,268.271790 
z"/>
<path fill="#232223" opacity="1.000000" stroke="none" 
	d="
M2.730057,24.121754 
	C2.882936,24.035505 2.974615,24.501884 2.938943,24.736834 
	C2.794574,24.717190 2.685876,24.462597 2.730057,24.121754 
z"/>
<path fill="#000000" opacity="1.000000" stroke="none" 
	d="
M319.988953,125.021996 
	C313.314117,126.219208 308.422791,131.182724 308.139282,137.610855 
	C307.921265,142.554108 308.249146,147.521469 308.811218,153.122314 
	C315.725708,153.844330 322.165558,153.843170 328.599823,154.032242 
	C331.984344,154.131699 335.359039,154.563782 338.738190,154.845673 
	C338.830048,155.031708 338.921906,155.217743 339.036743,156.100098 
	C339.029449,159.033890 339.104462,161.278900 338.944794,163.507080 
	C338.693848,167.008301 338.284729,170.498169 337.942566,173.992844 
	C337.942566,173.992844 337.471405,174.016068 337.020569,173.589813 
	C327.703918,173.155350 318.838104,173.147171 309.656860,173.192047 
	C308.947937,174.141022 308.554443,175.036926 308.090698,176.406998 
	C308.020416,189.873215 308.020325,202.865250 307.639343,216.051056 
	C301.202576,216.163589 295.146729,216.082382 289.053070,215.533630 
	C288.961090,187.738922 288.906891,160.411758 288.999268,132.731537 
	C292.228180,126.453323 295.310516,120.528145 298.392853,114.602959 
	C298.392853,114.602959 298.416748,114.497398 298.767944,114.371689 
	C299.752045,113.494118 300.384949,112.742256 301.017853,111.990402 
	C301.017853,111.990402 300.991821,111.994370 301.354919,111.960587 
	C307.160828,109.567276 312.603577,107.207748 318.508423,104.913284 
	C329.636688,105.012390 340.302856,105.046425 350.969055,105.080460 
	C350.969055,105.080467 350.994507,105.011490 350.999969,105.374435 
	C351.067902,106.485992 351.130341,107.234612 351.192810,107.983231 
	C351.472137,113.061447 351.751495,118.139671 351.512939,123.628922 
	C341.795776,124.020546 332.596283,123.964905 323.397552,124.027969 
	C322.259125,124.035774 321.125061,124.675240 319.988953,125.021996 
z"/>
<path fill="#F6AFB1" opacity="1.000000" stroke="none" 
	d="
M242.271622,58.884926 
	C242.173386,56.861870 242.075150,54.838806 242.012360,52.449345 
	C242.047791,52.082943 242.227295,52.121811 242.460709,52.087372 
	C242.694122,52.052937 243.163422,51.988945 243.528961,52.045303 
	C245.888718,52.681156 247.870483,53.683071 249.880051,53.742332 
	C252.987030,53.833954 256.112701,53.042149 259.230988,53.038101 
	C300.452759,52.984573 341.674622,52.997353 382.896484,53.018925 
	C385.423798,53.020248 388.010834,53.358994 389.180084,50.108452 
	C389.600616,50.098728 389.768829,50.094334 389.937012,50.089935 
	C389.937012,50.089935 389.991272,50.038967 389.976196,50.479614 
	C389.955322,53.604748 389.949524,56.289234 389.478607,58.972153 
	C340.099518,58.942039 291.185577,58.913483 242.271622,58.884926 
z"/>
<path fill="#F5888B" opacity="1.000000" stroke="none" 
	d="
M242.163452,59.280354 
	C291.185577,58.913483 340.099518,58.942039 389.593231,59.240807 
	C390.267090,59.681271 390.361206,59.851513 390.455322,60.021759 
	C390.311890,61.074673 390.168488,62.127586 389.528473,63.580811 
	C344.176422,63.984093 299.320892,64.014603 254.465530,63.943806 
	C250.359924,63.937328 246.255341,63.282551 242.150299,62.928818 
	C242.118622,61.844471 242.086960,60.760128 242.163452,59.280354 
z"/>
<path fill="#E93439" opacity="1.000000" stroke="none" 
	d="
M251.996948,40.427307 
	C294.773193,40.026794 337.551086,40.016022 380.328979,40.016560 
	C385.479065,40.016624 390.102112,41.367027 393.797363,45.719490 
	C392.884827,46.635864 391.775726,47.271423 390.130005,47.669407 
	C386.481537,46.287167 383.374969,44.162334 380.257172,44.145714 
	C337.504303,43.917835 294.749908,43.980801 251.995880,43.972290 
	C251.996780,42.921680 251.997696,41.871075 251.996948,40.427307 
z"/>
<path fill="#EF464A" opacity="1.000000" stroke="none" 
	d="
M390.044373,68.990448 
	C389.536682,70.300781 389.328918,71.916626 388.415375,72.813599 
	C387.810455,73.407555 386.193634,72.992508 385.029816,72.992615 
	C339.106384,72.996620 293.182983,73.008018 247.259598,72.961388 
	C245.044037,72.959137 241.812408,74.141426 242.419281,69.438309 
	C245.288956,69.351067 247.735641,69.955711 250.183090,69.958839 
	C294.872101,70.015991 339.561249,70.013542 384.250244,69.958412 
	C386.182037,69.956032 388.113007,69.327362 390.044373,68.990448 
z"/>
<path fill="#F26C6F" opacity="1.000000" stroke="none" 
	d="
M242.088684,63.330563 
	C246.255341,63.282551 250.359924,63.937328 254.465530,63.943806 
	C299.320892,64.014603 344.176422,63.984093 389.496368,63.979843 
	C389.982605,64.733231 390.004364,65.487907 389.542480,66.619736 
	C340.057373,66.987839 291.055939,66.978783 242.054474,66.969727 
	C242.045349,65.890587 242.036224,64.811447 242.088684,63.330563 
z"/>
<path fill="#EF585B" opacity="1.000000" stroke="none" 
	d="
M242.028198,67.308441 
	C291.055939,66.978783 340.057373,66.987839 389.526917,66.997070 
	C390.006744,67.440239 390.018494,67.883240 390.037292,68.658340 
	C388.113007,69.327362 386.182037,69.956032 384.250244,69.958412 
	C339.561249,70.013542 294.872101,70.015991 250.183090,69.958839 
	C247.735641,69.955711 245.288956,69.351067 242.418427,69.015808 
	C241.997269,68.552513 241.999588,68.099831 242.028198,67.308441 
z"/>
<path fill="#C3464A" opacity="1.000000" stroke="none" 
	d="
M235.449829,254.733398 
	C235.130310,254.073914 235.010315,253.080063 235.010315,252.086212 
	C235.009644,185.683502 235.018646,119.280785 235.105789,52.407192 
	C235.456879,53.363449 235.966034,54.790428 235.967010,56.217747 
	C236.011353,121.293045 236.012634,186.368378 236.003418,251.443695 
	C236.003281,252.428818 235.809021,253.413925 235.449829,254.733398 
z"/>
<path fill="#D83C42" opacity="1.000000" stroke="none" 
	d="
M251.568909,43.980736 
	C294.749908,43.980801 337.504303,43.917835 380.257172,44.145714 
	C383.374969,44.162334 386.481537,46.287167 389.801758,47.716251 
	C390.005432,48.465145 390.000671,48.929619 389.966461,49.742016 
	C389.768829,50.094334 389.600616,50.098728 389.031158,49.794247 
	C385.164642,45.984695 381.005463,45.067127 376.103027,45.085548 
	C335.379303,45.238575 294.654663,45.211189 253.930649,45.101246 
	C249.677811,45.089767 246.146851,46.045219 243.235382,49.189568 
	C243.134277,49.105347 242.934250,48.934299 242.934250,48.934299 
	C243.171112,43.138145 247.462494,44.071507 251.568909,43.980736 
z"/>
<path fill="#C23D44" opacity="1.000000" stroke="none" 
	d="
M289.090851,216.001160 
	C295.146729,216.082382 301.202576,216.163589 307.854980,216.065979 
	C308.451477,215.887146 308.883728,215.883484 308.919189,215.915497 
	C308.954651,215.947525 309.030975,216.005051 309.030975,216.005051 
	C307.054901,218.062546 289.805054,219.150574 287.983490,217.112411 
	C287.067383,216.087387 286.419830,214.441620 286.393250,213.062271 
	C286.173859,201.666550 285.971710,190.266052 286.076385,178.869858 
	C286.172211,168.438873 286.661194,158.011597 286.967163,147.582397 
	C287.085327,143.554489 287.176727,139.525818 287.609314,135.697418 
	C287.951538,160.756927 287.941284,185.616592 288.025848,210.475937 
	C288.032135,212.318878 288.719910,214.159470 289.090851,216.001160 
z"/>
<path fill="#F59D9F" opacity="1.000000" stroke="none" 
	d="
M289.053070,215.533630 
	C288.719910,214.159470 288.032135,212.318878 288.025848,210.475937 
	C287.941284,185.616592 287.951538,160.756927 287.869537,135.428162 
	C287.863861,134.547852 287.926971,134.136719 288.222321,133.397110 
	C288.454590,133.068634 288.852692,133.084579 288.852692,133.084579 
	C288.906891,160.411758 288.961090,187.738922 289.053070,215.533630 
z"/>
<path fill="#C23D44" opacity="1.000000" stroke="none" 
	d="
M308.160919,175.932831 
	C308.554443,175.036926 308.947937,174.141022 309.967285,173.474426 
	C319.019867,173.793091 327.446594,173.882462 335.873352,173.971832 
	C331.002380,174.309769 326.135742,174.837723 321.259583,174.948746 
	C308.472321,175.239853 310.137909,173.321548 309.995422,186.018433 
	C309.885529,195.816162 309.743774,205.613541 309.323578,215.708069 
	C309.030975,216.005051 308.954651,215.947525 308.959686,215.457336 
	C308.984344,203.353149 309.033295,191.739044 308.985260,180.125320 
	C308.979462,178.726715 308.448486,177.330276 308.160919,175.932831 
z"/>
<path fill="#C85253" opacity="1.000000" stroke="none" 
	d="
M288.999268,132.731537 
	C288.852692,133.084579 288.454590,133.068634 288.256439,133.086456 
	C288.063995,125.176826 291.850555,119.184814 298.050598,114.428024 
	C295.310516,120.528145 292.228180,126.453323 288.999268,132.731537 
z"/>
<path fill="#C85253" opacity="1.000000" stroke="none" 
	d="
M318.046356,104.848236 
	C312.603577,107.207748 307.160828,109.567276 301.355042,111.973770 
	C302.963226,110.250824 304.672333,107.924225 306.967957,106.843330 
	C310.292847,105.277771 314.042023,104.613266 317.818970,104.013710 
	C318.027771,104.463028 318.046356,104.848236 318.046356,104.848236 
z"/>
<path fill="#F79194" opacity="1.000000" stroke="none" 
	d="
M318.508423,104.913292 
	C318.046356,104.848236 318.027771,104.463028 318.035706,104.270584 
	C318.477051,104.039589 318.910461,104.001038 320.136597,103.993515 
	C330.952545,104.015846 340.975769,104.007141 350.998993,103.998436 
	C351.026520,104.179672 351.054016,104.360916 351.025269,104.811310 
	C340.302856,105.046425 329.636688,105.012390 318.508423,104.913292 
z"/>
<path fill="#FFB7BC" opacity="1.000000" stroke="none" 
	d="
M320.458588,125.020012 
	C321.125061,124.675240 322.259125,124.035774 323.397552,124.027969 
	C332.596283,123.964905 341.795776,124.020546 351.454224,124.067909 
	C349.698547,124.427353 347.486725,125.018356 345.268341,125.043869 
	C337.156158,125.137207 329.041779,125.042137 320.458588,125.020012 
z"/>
<path fill="#FFFFFF" opacity="1.000000" stroke="none" 
	d="
M338.735413,154.621872 
	C335.359039,154.563782 331.984344,154.131699 328.599823,154.032242 
	C322.165558,153.843170 315.725708,153.844330 309.179749,153.331024 
	C318.628723,152.985001 328.186188,153.074478 338.218567,153.380432 
	C338.693542,153.596909 338.911346,153.987640 338.911346,153.987640 
	C338.911346,153.987640 338.732666,154.398071 338.735413,154.621872 
z"/>
<path fill="#C85253" opacity="1.000000" stroke="none" 
	d="
M350.705353,103.701508 
	C340.975769,104.007141 330.952545,104.015846 320.462769,103.974533 
	C323.711182,103.621315 327.424377,103.093620 331.141479,103.064751 
	C337.563629,103.014870 343.988159,103.274681 350.705353,103.701508 
z"/>
<path fill="#CF6B6B" opacity="1.000000" stroke="none" 
	d="
M336.158936,173.952728 
	C327.446594,173.882462 319.019867,173.793091 310.282684,173.421356 
	C318.838104,173.147171 327.703918,173.155350 336.792664,173.529099 
	C336.825195,173.907639 336.634827,173.920639 336.158936,173.952728 
z"/>
<path fill="#C23D44" opacity="1.000000" stroke="none" 
	d="
M338.324463,173.959061 
	C338.284729,170.498169 338.693848,167.008301 338.944794,163.507080 
	C339.104462,161.278900 339.029449,159.033890 339.151886,156.389221 
	C339.794495,161.170273 340.440460,166.352127 340.787415,171.553940 
	C340.836823,172.294830 339.435944,173.132446 338.324463,173.959061 
z"/>
<path fill="#D83C42" opacity="1.000000" stroke="none" 
	d="
M390.779938,59.889858 
	C390.361206,59.851513 390.267090,59.681271 390.058380,59.242371 
	C389.949524,56.289234 389.955322,53.604748 389.939880,50.471375 
	C390.313965,53.267643 390.709259,56.512802 390.779938,59.889858 
z"/>
<path fill="#D83C42" opacity="1.000000" stroke="none" 
	d="
M241.987457,52.013710 
	C242.055405,50.986263 242.183701,50.028049 242.623123,49.002068 
	C242.934250,48.934299 243.134277,49.105347 243.199310,49.475494 
	C243.162323,50.216873 243.060303,50.588108 242.736115,51.077534 
	C242.418365,51.504421 242.322830,51.813114 242.227295,52.121811 
	C242.227295,52.121811 242.047791,52.082943 241.987457,52.013710 
z"/>
<path fill="#C85253" opacity="1.000000" stroke="none" 
	d="
M300.672089,112.006210 
	C300.384949,112.742256 299.752045,113.494118 298.808960,114.336372 
	C299.107941,113.625191 299.717133,112.823601 300.672089,112.006210 
z"/>
<path fill="#F79194" opacity="1.000000" stroke="none" 
	d="
M351.429749,107.778755 
	C351.130341,107.234612 351.067902,106.485992 350.964966,105.363197 
	C351.171875,105.850777 351.419281,106.712524 351.429749,107.778755 
z"/>
<path fill="#D83C42" opacity="1.000000" stroke="none" 
	d="
M246.081390,40.185963 
	C246.153671,40.015076 246.321274,40.006195 246.740585,39.995178 
	C246.720428,40.111351 246.448563,40.229660 246.081390,40.185963 
z"/>
<path fill="#D83C42" opacity="1.000000" stroke="none" 
	d="
M237.206879,48.875923 
	C237.083298,48.662956 237.261841,48.402836 237.730408,48.082352 
	C237.876846,48.303715 237.706360,48.572636 237.206879,48.875923 
z"/>
<path fill="#C23D44" opacity="1.000000" stroke="none" 
	d="
M339.095337,153.891235 
	C338.911346,153.987640 338.693542,153.596909 338.665466,153.375336 
	C338.851349,153.367447 339.065338,153.581146 339.095337,153.891235 
z"/>
<path fill="#000000" opacity="1.000000" stroke="none" 
	d="
M440.001282,324.484314 
	C438.238831,307.918274 451.247589,300.539490 461.574158,299.991913 
	C469.597443,299.566528 480.132477,306.943390 482.847198,315.071564 
	C485.630981,323.406403 482.484375,328.950623 475.471527,335.849640 
	C464.608795,346.535980 444.369385,340.768188 440.001282,324.484314 
z"/>
<path fill="#EB3238" opacity="1.000000" stroke="none" 
	d="
M220.015594,43.980450 
	C220.686386,53.336224 221.881943,62.710129 221.908722,72.087379 
	C222.079620,131.915131 221.921921,191.743851 222.108826,251.571503 
	C222.126266,257.156067 219.685577,261.070770 216.333603,264.769501 
	C215.518036,265.669434 213.647278,265.945862 212.261002,265.947662 
	C166.098358,266.007568 119.935585,266.020203 73.772903,265.976624 
	C67.411919,265.970642 63.999775,261.936981 63.999195,254.813354 
	C63.993904,189.903503 63.996243,124.993668 63.995960,60.083820 
	C63.995949,57.250729 63.974949,54.417526 63.993618,51.584572 
	C64.037086,44.988163 67.763092,41.066841 74.289864,41.013981 
	C118.743607,40.653954 163.197586,40.239342 207.651901,40.182865 
	C211.534470,40.177929 215.420135,42.621605 219.672150,43.948803 
	C220.039932,43.969681 219.999908,44.000130 220.015594,43.980450 
M214.960953,48.033352 
	C214.960953,48.033352 214.850861,48.174232 214.943344,47.336369 
	C214.946350,43.820312 212.433441,44.004093 210.044235,44.003902 
	C166.583191,44.000412 123.122154,43.988354 79.661171,44.035595 
	C78.435844,44.036926 77.211205,44.670403 75.527946,45.212669 
	C75.203011,45.186329 74.878082,45.159985 73.911057,45.208340 
	C73.611931,45.497013 73.312798,45.785686 72.735329,46.566101 
	C71.950462,47.086914 71.165588,47.607731 69.532005,48.115215 
	C64.703842,52.214092 67.288025,57.197826 67.941109,62.777695 
	C67.989319,64.170006 68.037529,65.562309 68.025536,67.704971 
	C68.034630,68.456245 68.043724,69.207527 68.047432,70.797821 
	C69.764038,71.530289 71.477913,72.893990 73.197647,72.901413 
	C103.343163,73.031487 133.489395,72.995972 163.635468,72.995842 
	C179.624542,72.995773 195.613617,72.998306 211.602692,72.989494 
	C213.722336,72.988319 216.239243,73.514038 216.020645,69.259407 
	C216.016113,68.507973 216.011566,67.756531 216.221588,66.495064 
	C216.114075,65.650574 216.006561,64.806084 215.979218,63.303143 
	C216.031952,62.864059 216.084671,62.424976 216.897278,61.787712 
	C217.203201,57.871765 217.646790,53.956791 217.674423,50.038887 
	C217.678833,49.413445 215.817825,48.774853 214.960953,48.033352 
M159.148727,185.139069 
	C155.193893,192.422043 148.947556,195.781006 140.842377,194.888382 
	C132.492004,193.968735 124.221771,192.339081 115.892036,191.198669 
	C114.302887,190.981094 112.599915,191.594910 110.243309,192.351456 
	C110.152420,197.504852 109.792320,202.676392 110.137733,207.800385 
	C110.238914,209.301346 112.097427,211.502029 113.578011,211.941437 
	C118.394173,213.370697 123.732941,213.372559 128.277542,215.312805 
	C137.342606,219.182999 146.409622,216.858322 154.961487,215.181320 
	C165.918961,213.032593 173.587067,204.940887 178.022736,194.760223 
	C184.763184,179.289642 181.660217,165.977249 167.297943,157.323547 
	C159.803802,152.808105 150.678818,151.000412 142.292404,147.964294 
	C138.777176,146.691711 134.934097,145.937057 131.834549,143.997086 
	C127.462929,141.260910 127.379181,136.663330 128.547714,132.027267 
	C129.867630,126.790649 134.220444,125.206177 138.549850,125.241913 
	C144.564911,125.291565 150.720474,125.988220 156.546371,127.468575 
	C167.387894,130.223389 167.974121,130.087372 168.122726,119.449310 
	C168.139023,118.283569 167.983261,117.098183 168.142792,115.954765 
	C168.741104,111.666191 166.564026,109.576042 162.653931,108.789642 
	C157.709290,107.795181 152.737396,106.922714 147.819855,105.809441 
	C130.554092,101.900642 110.820290,110.005455 107.383377,130.824310 
	C105.835052,140.203186 107.764862,148.363846 113.959129,155.430161 
	C121.365334,163.879044 132.035782,165.775024 142.019547,169.051239 
	C146.936020,170.664612 152.023376,172.103287 156.510986,174.571014 
	C160.280136,176.643677 162.376114,180.371033 159.148727,185.139069 
z"/>
<path fill="#000000" opacity="1.000000" stroke="none" 
	d="
M256.000153,303.897461 
	C260.102966,309.317902 258.876007,314.149475 252.800232,316.495056 
	C250.305847,317.458099 247.529221,317.690063 244.356995,318.366272 
	C244.356995,312.289093 244.356995,307.072021 244.356995,301.548523 
	C248.496948,300.355469 252.270493,301.192169 256.000153,303.897461 
z"/>
<path fill="#000000" opacity="1.000000" stroke="none" 
	d="
M313.320007,327.003937 
	C311.773956,326.897125 310.662750,326.791687 308.719330,326.607269 
	C311.230927,321.535431 313.503784,316.945709 316.192627,311.515930 
	C318.616455,316.346100 320.664734,320.135315 322.334503,324.084595 
	C322.572632,324.647919 321.114594,326.641968 320.202118,326.833588 
	C318.132294,327.268280 315.913269,326.992371 313.320007,327.003937 
z"/>
<path fill="#EB3237" opacity="1.000000" stroke="none" 
	d="
M412.208282,44.389511 
	C419.687744,40.631317 427.175690,38.882198 435.471161,40.817665 
	C438.677063,41.565655 442.343018,40.062473 445.800385,40.055218 
	C480.033936,39.983360 514.267700,40.010254 548.501404,40.009235 
	C552.551147,40.009113 556.600830,40.009216 560.650574,40.009216 
	C560.836365,40.461658 561.022156,40.914101 561.207947,41.366543 
	C560.219788,42.468994 559.231567,43.571445 557.738159,44.976112 
	C556.818359,45.171299 556.403870,45.064278 555.691772,44.666885 
	C554.581909,44.249794 553.769531,44.012562 552.957092,44.012199 
	C511.011200,43.993412 469.065308,43.984612 427.119476,44.038651 
	C425.736603,44.040428 424.354614,44.702156 422.845459,45.141724 
	C422.718750,45.227196 422.426544,45.137253 421.997864,45.092422 
	C418.603882,44.771393 416.668396,45.632961 417.073547,49.052994 
	C417.055298,49.005527 417.138672,49.063770 416.880341,49.143974 
	C416.420624,49.511879 416.219208,49.799572 415.983490,50.332008 
	C415.949158,50.576748 415.813202,51.051949 415.546997,51.298859 
	C414.132690,54.427235 412.282227,57.341206 415.752472,60.400490 
	C415.919769,61.841438 416.007263,62.894508 416.049988,64.324234 
	C416.020416,65.457649 416.035675,66.214394 416.027893,67.347572 
	C416.009399,68.477318 416.013916,69.230637 416.026031,70.401367 
	C417.759705,71.544128 419.483185,72.894775 421.212280,72.901947 
	C452.024658,73.029671 482.837708,72.994324 513.650635,72.994118 
	C528.973816,72.994011 544.297058,72.997337 559.620239,72.990074 
	C561.744995,72.989067 564.261047,73.505348 563.997864,69.615891 
	C563.999268,68.491356 563.992981,67.741585 563.998413,66.610573 
	C563.972107,65.467194 563.934082,64.705063 563.930603,63.513615 
	C563.924988,61.366119 563.884766,59.647938 563.911133,57.502850 
	C563.992798,55.053055 564.007935,53.030163 564.254150,50.825897 
	C563.945312,50.124958 563.405396,49.605385 562.883484,49.095901 
	C562.901428,49.105988 562.859741,49.131348 562.859741,49.131348 
	C562.619263,46.415257 560.472717,42.689045 566.444824,43.126778 
	C570.087891,52.265720 570.060547,61.679295 570.042603,71.178932 
	C569.929871,130.944077 569.985657,190.709534 569.985046,250.474884 
	C569.984924,260.744873 566.287354,265.156067 556.180969,265.949585 
	C550.308167,266.410645 544.368286,266.010284 538.458557,266.009766 
	C505.163116,266.006866 471.867584,265.978180 438.572266,266.044312 
	C434.355438,266.052704 430.143188,266.656647 425.922455,266.822815 
	C419.080719,267.092163 413.948792,264.253754 410.432526,258.027100 
	C410.075165,190.285004 410.048798,122.616287 410.189667,54.385757 
	C410.416626,53.716064 410.553772,53.553982 410.522766,53.509682 
	C410.387878,53.317135 410.204041,53.158890 410.038025,52.988167 
	C410.035767,52.548233 410.033539,52.108311 410.295654,51.103069 
	C410.720215,49.380116 410.880341,48.222481 411.040497,47.064842 
	C411.400604,46.282051 411.760712,45.499264 412.208282,44.389511 
M474.532196,208.195587 
	C479.188995,210.763214 483.605133,214.737793 488.556274,215.584778 
	C497.013245,217.031509 505.859985,217.218979 514.436096,216.554855 
	C519.330261,216.175858 524.013000,213.065659 529.183533,211.030716 
	C525.900818,204.753174 522.571838,198.387131 519.859619,193.200516 
	C512.025635,193.813736 504.872650,194.922882 497.745819,194.774796 
	C490.823364,194.630936 485.712738,190.342575 481.979919,184.692673 
	C475.746277,175.257538 475.355835,164.501053 476.198303,153.839798 
	C476.893250,145.045044 479.795410,136.574020 487.011353,130.824081 
	C495.219238,124.283699 504.774017,126.986572 514.006714,128.046387 
	C516.009460,128.276291 519.312073,128.632019 519.922485,127.640709 
	C523.294495,122.164474 526.018372,116.289070 529.209473,110.073112 
	C524.807007,108.737068 520.887024,107.158218 516.814026,106.377563 
	C497.374420,102.651680 479.397308,104.047607 466.559052,121.855797 
	C455.997345,136.506180 452.113495,152.747742 454.762329,170.645050 
	C456.927704,185.275803 462.860565,197.893204 474.532196,208.195587 
z"/>
<path fill="#DB3B40" opacity="1.000000" stroke="none" 
	d="
M410.754150,47.276039 
	C410.880341,48.222481 410.720215,49.380116 410.299194,50.773136 
	C410.181488,49.834755 410.324646,48.660995 410.754150,47.276039 
z"/>
<path fill="#DB3B40" opacity="1.000000" stroke="none" 
	d="
M410.026886,53.244061 
	C410.204041,53.158890 410.387878,53.317135 410.522766,53.509682 
	C410.553772,53.553982 410.416626,53.716064 410.196106,53.917896 
	C410.028809,53.841225 410.022278,53.670589 410.026886,53.244061 
z"/>
<path fill="#FAD1D2" opacity="1.000000" stroke="none" 
	d="
M422.426544,45.137253 
	C422.426544,45.137253 422.718750,45.227196 423.315063,45.191982 
	C454.318207,45.161163 484.725006,45.187389 515.131775,45.160038 
	C528.751038,45.147785 542.370117,45.028156 555.989319,44.957256 
	C556.403870,45.064278 556.818359,45.171299 557.553833,45.297569 
	C559.313354,46.554249 560.752075,47.791687 562.525269,49.080238 
	C562.859741,49.131348 562.901428,49.105988 562.885193,49.396950 
	C562.936768,50.083462 563.004517,50.479012 562.957703,51.273323 
	C560.866394,52.112106 558.890198,52.933159 556.912781,52.936314 
	C510.282074,53.010769 463.651245,52.997059 417.012146,52.666496 
	C417.001892,51.889404 416.999969,51.445324 417.014343,50.771553 
	C417.030640,50.541862 417.031311,50.081322 417.096741,49.831009 
	C417.154327,49.408386 417.146515,49.236076 417.138672,49.063770 
	C417.138672,49.063770 417.055298,49.005527 417.363953,48.893814 
	C419.257233,47.567150 420.841888,46.352200 422.426544,45.137253 
z"/>
<path fill="#373435" opacity="1.000000" stroke="none" 
	d="
M65.034348,345.634949 
	C65.008415,328.063995 65.008415,310.951660 65.008415,293.426910 
	C67.653633,293.426910 69.881264,293.426910 72.572662,293.426910 
	C72.572662,311.246246 72.572662,329.122864 72.572662,348.446503 
	C69.909027,347.612244 67.484650,346.852905 65.034348,345.634949 
z"/>
<path fill="#FFB7BC" opacity="1.000000" stroke="none" 
	d="
M308.090698,176.406998 
	C308.448486,177.330276 308.979462,178.726715 308.985260,180.125320 
	C309.033295,191.739044 308.984344,203.353149 308.924225,215.425323 
	C308.883728,215.883484 308.451477,215.887146 308.235870,215.872223 
	C308.020325,202.865250 308.020416,189.873215 308.090698,176.406998 
z"/>
<path fill="#FAD1D2" opacity="1.000000" stroke="none" 
	d="
M242.958298,50.959339 
	C243.060303,50.588108 243.162323,50.216873 243.300415,49.559711 
	C246.146851,46.045219 249.677811,45.089767 253.930649,45.101246 
	C294.654663,45.211189 335.379303,45.238575 376.103027,45.085548 
	C381.005463,45.067127 385.164642,45.984695 388.778839,49.799576 
	C388.010834,53.358994 385.423798,53.020248 382.896484,53.018925 
	C341.674622,52.997353 300.452759,52.984573 259.230988,53.038101 
	C256.112701,53.042149 252.987030,53.833954 249.880051,53.742332 
	C247.870483,53.683071 245.888718,52.681156 243.490112,51.785381 
	C243.043259,51.299183 243.000778,51.129261 242.958298,50.959339 
z"/>
<path fill="#F5888B" opacity="1.000000" stroke="none" 
	d="
M242.736115,51.077534 
	C243.000778,51.129261 243.043259,51.299183 243.124573,51.729027 
	C243.163422,51.988945 242.694122,52.052937 242.460709,52.087372 
	C242.322830,51.813114 242.418365,51.504421 242.736115,51.077534 
z"/>
<path fill="#000000" opacity="1.000000" stroke="none" 
	d="
M159.809616,185.004410 
	C162.376114,180.371033 160.280136,176.643677 156.510986,174.571014 
	C152.023376,172.103287 146.936020,170.664612 142.019547,169.051239 
	C132.035782,165.775024 121.365334,163.879044 113.959129,155.430161 
	C107.764862,148.363846 105.835052,140.203186 107.383377,130.824310 
	C110.820290,110.005455 130.554092,101.900642 147.819855,105.809441 
	C152.737396,106.922714 157.709290,107.795181 162.653931,108.789642 
	C166.564026,109.576042 168.741104,111.666191 168.142792,115.954765 
	C167.983261,117.098183 168.139023,118.283569 168.122726,119.449310 
	C167.974121,130.087372 167.387894,130.223389 156.546371,127.468575 
	C150.720474,125.988220 144.564911,125.291565 138.549850,125.241913 
	C134.220444,125.206177 129.867630,126.790649 128.547714,132.027267 
	C127.379181,136.663330 127.462929,141.260910 131.834549,143.997086 
	C134.934097,145.937057 138.777176,146.691711 142.292404,147.964294 
	C150.678818,151.000412 159.803802,152.808105 167.297943,157.323547 
	C181.660217,165.977249 184.763184,179.289642 178.022736,194.760223 
	C173.587067,204.940887 165.918961,213.032593 154.961487,215.181320 
	C146.409622,216.858322 137.342606,219.182999 128.277542,215.312805 
	C123.732941,213.372559 118.394173,213.370697 113.578011,211.941437 
	C112.097427,211.502029 110.238914,209.301346 110.137733,207.800385 
	C109.792320,202.676392 110.152420,197.504852 111.003021,192.157959 
	C123.466248,195.835526 135.515244,196.548874 147.718857,195.956131 
	C154.350983,195.634033 159.127274,191.362350 159.809616,185.004410 
z"/>
<path fill="#FACFD1" opacity="1.000000" stroke="none" 
	d="
M70.380722,48.128540 
	C71.165588,47.607731 71.950462,47.086914 73.181435,46.255577 
	C73.936073,45.674583 74.244606,45.404110 74.553146,45.133640 
	C74.878082,45.159985 75.203011,45.186329 76.222565,45.185596 
	C119.141998,45.156712 161.367188,45.078583 203.590988,45.284389 
	C207.348892,45.302711 211.097778,47.167183 214.850861,48.174232 
	C214.850861,48.174232 214.960953,48.033352 214.973236,48.382603 
	C215.184113,49.504677 215.382706,50.277500 215.364197,51.323524 
	C213.341843,52.390823 211.538162,53.867039 209.731049,53.871223 
	C195.125961,53.905048 180.520157,53.527645 165.914749,53.538383 
	C148.121826,53.551464 130.329163,53.831024 112.536186,53.969608 
	C108.591751,54.000332 104.644913,53.984917 100.701889,53.884300 
	C90.190170,53.616070 79.679924,53.289890 69.101929,52.705864 
	C68.973816,52.242352 68.912872,52.059719 68.932159,51.548820 
	C69.468498,50.189884 69.924606,49.159214 70.380722,48.128540 
z"/>
<path fill="#F26C6F" opacity="1.000000" stroke="none" 
	d="
M68.085739,66.954620 
	C68.037529,65.562309 67.989319,64.170006 67.953918,62.079384 
	C68.167152,60.856380 68.367592,60.331684 68.715767,60.089294 
	C68.915298,60.577610 68.967102,60.783619 69.064194,61.384251 
	C70.921745,62.518745 72.732574,63.900631 74.546509,63.904716 
	C121.663818,64.010895 168.781448,63.973885 215.899033,63.961594 
	C216.006561,64.806084 216.114075,65.650574 215.644897,66.747040 
	C166.074036,66.984215 117.079887,66.969414 68.085739,66.954620 
z"/>
<path fill="#EF585B" opacity="1.000000" stroke="none" 
	d="
M68.055634,67.329796 
	C117.079887,66.969414 166.074036,66.984215 215.537613,67.002052 
	C216.011566,67.756531 216.016113,68.507973 215.546112,69.631203 
	C166.065323,69.988266 117.059074,69.973534 68.052818,69.958801 
	C68.043724,69.207527 68.034630,68.456245 68.055634,67.329796 
z"/>
<path fill="#EF464A" opacity="1.000000" stroke="none" 
	d="
M68.050125,70.378311 
	C117.059074,69.973534 166.065323,69.988266 215.541504,70.007004 
	C216.239243,73.514038 213.722336,72.988319 211.602692,72.989494 
	C195.613617,72.998306 179.624542,72.995773 163.635468,72.995842 
	C133.489395,72.995972 103.343163,73.031487 73.197647,72.901413 
	C71.477913,72.893990 69.764038,71.530289 68.050125,70.378311 
z"/>
<path fill="#F58183" opacity="1.000000" stroke="none" 
	d="
M215.939117,63.632366 
	C168.781448,63.973885 121.663818,64.010895 74.546509,63.904716 
	C72.732574,63.900631 70.921745,62.518745 69.516663,61.387741 
	C72.954536,60.988441 75.985214,60.980282 79.481888,60.978035 
	C85.293205,60.979721 90.638527,60.975502 96.453598,60.982559 
	C102.954269,60.986244 108.985184,60.978661 115.478073,60.975304 
	C119.954651,60.976784 123.969254,60.974033 128.453979,60.982559 
	C145.621429,60.986248 162.318756,60.978661 179.483704,60.975338 
	C188.628723,60.976711 197.306122,60.973820 206.437027,60.982040 
	C209.881699,60.983276 212.872849,60.973396 215.929260,61.219936 
	C216.042160,61.646198 216.089767,61.816044 216.137390,61.985889 
	C216.084671,62.424976 216.031952,62.864059 215.939117,63.632366 
z"/>
<path fill="#DA3B3F" opacity="1.000000" stroke="none" 
	d="
M214.897095,47.755302 
	C211.097778,47.167183 207.348892,45.302711 203.590988,45.284389 
	C161.367188,45.078583 119.141998,45.156712 76.451714,45.083820 
	C77.211205,44.670403 78.435844,44.036926 79.661171,44.035595 
	C123.122154,43.988354 166.583191,44.000412 210.044235,44.003902 
	C212.433441,44.004093 214.946350,43.820312 214.897095,47.755302 
z"/>
<path fill="#C85253" opacity="1.000000" stroke="none" 
	d="
M159.479172,185.071747 
	C159.127274,191.362350 154.350983,195.634033 147.718857,195.956131 
	C135.515244,196.548874 123.466248,195.835526 111.356094,191.894806 
	C112.599915,191.594910 114.302887,190.981094 115.892036,191.198669 
	C124.221771,192.339081 132.492004,193.968735 140.842377,194.888382 
	C148.947556,195.781006 155.193893,192.422043 159.479172,185.071747 
z"/>
<path fill="#DA3B3F" opacity="1.000000" stroke="none" 
	d="
M216.517334,61.886803 
	C216.089767,61.816044 216.042160,61.646198 215.975189,60.852463 
	C215.924011,59.489998 215.892166,58.751423 215.906235,57.677849 
	C215.912613,56.895622 215.873077,56.448399 215.890411,55.586094 
	C215.825287,53.797451 215.703293,52.423889 215.581299,51.050323 
	C215.382706,50.277500 215.184113,49.504677 214.902374,48.437096 
	C215.817825,48.774853 217.678833,49.413445 217.674423,50.038887 
	C217.646790,53.956791 217.203201,57.871765 216.517334,61.886803 
z"/>
<path fill="#DA3B3F" opacity="1.000000" stroke="none" 
	d="
M68.568024,59.806988 
	C68.367592,60.331684 68.167152,60.856380 67.923958,61.662476 
	C67.288025,57.197826 64.703842,52.214092 69.956360,48.121880 
	C69.924606,49.159214 69.468498,50.189884 68.726593,51.687859 
	C68.197380,52.427006 68.126099,52.738293 68.174599,53.467743 
	C68.172821,54.862137 68.223404,55.877815 68.243713,57.172215 
	C68.405090,57.763889 68.596748,58.076839 68.742828,58.553436 
	C68.697266,58.717075 68.755836,59.051723 68.692688,59.236511 
	C68.629532,59.421299 68.568024,59.806988 68.568024,59.806988 
z"/>
<path fill="#DA3B3F" opacity="1.000000" stroke="none" 
	d="
M74.232101,45.170990 
	C74.244606,45.404110 73.936073,45.674583 73.320602,46.009705 
	C73.312798,45.785686 73.611931,45.497013 74.232101,45.170990 
z"/>
<path fill="#000000" opacity="1.000000" stroke="none" 
	d="
M474.157593,208.107758 
	C462.860565,197.893204 456.927704,185.275803 454.762329,170.645050 
	C452.113495,152.747742 455.997345,136.506180 466.559052,121.855797 
	C479.397308,104.047607 497.374420,102.651680 516.814026,106.377563 
	C520.887024,107.158218 524.807007,108.737068 529.209473,110.073112 
	C526.018372,116.289070 523.294495,122.164474 519.922485,127.640709 
	C519.312073,128.632019 516.009460,128.276291 514.006714,128.046387 
	C504.774017,126.986572 495.219238,124.283699 487.011353,130.824081 
	C479.795410,136.574020 476.893250,145.045044 476.198303,153.839798 
	C475.355835,164.501053 475.746277,175.257538 481.979919,184.692673 
	C485.712738,190.342575 490.823364,194.630936 497.745819,194.774796 
	C504.872650,194.922882 512.025635,193.813736 519.859619,193.200516 
	C522.571838,198.387131 525.900818,204.753174 529.183533,211.030716 
	C524.013000,213.065659 519.330261,216.175858 514.436096,216.554855 
	C505.859985,217.218979 497.013245,217.031509 488.556274,215.584778 
	C483.605133,214.737793 479.188995,210.763214 474.157593,208.107758 
z"/>
<path fill="#F58B8D" opacity="1.000000" stroke="none" 
	d="
M416.094788,63.947575 
	C416.007263,62.894508 415.919769,61.841438 415.848053,60.021961 
	C415.955719,58.481682 416.047577,57.707813 416.544373,57.009174 
	C418.560211,57.389648 420.171082,57.960674 421.782196,57.961498 
	C469.136292,57.985722 516.490417,57.953217 563.844543,57.929752 
	C563.884766,59.647938 563.924988,61.366119 563.473083,63.524536 
	C514.018921,63.959038 465.056854,63.953308 416.094788,63.947575 
z"/>
<path fill="#F6B2B4" opacity="1.000000" stroke="none" 
	d="
M563.911133,57.502850 
	C516.490417,57.953217 469.136292,57.985722 421.782196,57.961498 
	C420.171082,57.960674 418.560211,57.389648 416.490631,56.620468 
	C416.027313,55.108356 416.022583,54.060173 416.268219,53.007057 
	C416.685883,53.001247 416.853180,53.000378 417.020447,52.999504 
	C463.651245,52.997059 510.282074,53.010769 556.912781,52.936314 
	C558.890198,52.933159 560.866394,52.112106 563.195557,51.304688 
	C563.548035,50.937294 564.023071,51.007271 564.023071,51.007271 
	C564.007935,53.030163 563.992798,55.053055 563.911133,57.502850 
z"/>
<path fill="#F26C6F" opacity="1.000000" stroke="none" 
	d="
M416.049988,64.324234 
	C465.056854,63.953308 514.018921,63.959038 563.438538,63.953846 
	C563.934082,64.705063 563.972107,65.467194 563.531250,66.612122 
	C514.051880,66.986992 465.051422,66.979073 416.050934,66.971146 
	C416.035675,66.214394 416.020416,65.457649 416.049988,64.324234 
z"/>
<path fill="#EF585B" opacity="1.000000" stroke="none" 
	d="
M416.027893,67.347572 
	C465.051422,66.979073 514.051880,66.986992 563.519531,66.993370 
	C563.992981,67.741585 563.999268,68.491356 563.530334,69.619003 
	C514.042969,69.992569 465.030701,69.988266 416.018463,69.983955 
	C416.013916,69.230637 416.009399,68.477318 416.027893,67.347572 
z"/>
<path fill="#EF464A" opacity="1.000000" stroke="none" 
	d="
M416.026031,70.401367 
	C465.030701,69.988266 514.042969,69.992569 563.522705,69.993774 
	C564.261047,73.505348 561.744995,72.989067 559.620239,72.990074 
	C544.297058,72.997337 528.973816,72.994011 513.650635,72.994118 
	C482.837708,72.994324 452.024658,73.029671 421.212280,72.901947 
	C419.483185,72.894775 417.759705,71.544128 416.026031,70.401367 
z"/>
<path fill="#DB3B40" opacity="1.000000" stroke="none" 
	d="
M555.691772,44.666885 
	C542.370117,45.028156 528.751038,45.147785 515.131775,45.160038 
	C484.725006,45.187389 454.318207,45.161163 423.441803,45.106514 
	C424.354614,44.702156 425.736603,44.040428 427.119476,44.038651 
	C469.065308,43.984612 511.011200,43.993412 552.957092,44.012199 
	C553.769531,44.012562 554.581909,44.249794 555.691772,44.666885 
z"/>
<path fill="#DB3B40" opacity="1.000000" stroke="none" 
	d="
M416.017853,53.011990 
	C416.022583,54.060173 416.027313,55.108356 416.085754,56.545242 
	C416.047577,57.707813 415.955719,58.481682 415.768280,59.634079 
	C412.282227,57.341206 414.132690,54.427235 415.600708,51.263367 
	C415.920624,50.980961 416.047852,50.969833 416.009827,51.309364 
	C415.987152,52.103264 416.002502,52.557625 416.017853,53.011990 
z"/>
<path fill="#DB3B40" opacity="1.000000" stroke="none" 
	d="
M421.997864,45.092422 
	C420.841888,46.352200 419.257233,47.567150 417.382172,48.941280 
	C416.668396,45.632961 418.603882,44.771393 421.997864,45.092422 
z"/>
<path fill="#DB3B40" opacity="1.000000" stroke="none" 
	d="
M564.254150,50.825897 
	C564.023071,51.007271 563.548035,50.937294 563.310181,50.905930 
	C563.004517,50.479012 562.936768,50.083462 562.867249,49.386860 
	C563.405396,49.605385 563.945312,50.124958 564.254150,50.825897 
z"/>
<path fill="#F6B2B4" opacity="1.000000" stroke="none" 
	d="
M417.031311,50.081322 
	C417.031311,50.081322 417.030640,50.541862 416.776489,50.773758 
	C416.522339,51.005653 416.047852,50.969833 416.047852,50.969833 
	C416.047852,50.969833 415.920624,50.980961 415.866913,51.016457 
	C415.813202,51.051949 415.949158,50.576748 416.236725,50.302967 
	C416.693298,50.046562 416.862305,50.063942 417.031311,50.081322 
z"/>
<path fill="#DB3B40" opacity="1.000000" stroke="none" 
	d="
M417.096741,49.831009 
	C416.862305,50.063942 416.693298,50.046562 416.271057,50.058228 
	C416.219208,49.799572 416.420624,49.511879 416.880341,49.143974 
	C417.146515,49.236076 417.154327,49.408386 417.096741,49.831009 
z"/>
<path fill="#F58B8D" opacity="1.000000" stroke="none" 
	d="
M416.009827,51.309364 
	C416.047852,50.969833 416.522339,51.005653 416.760193,51.003448 
	C416.999969,51.445324 417.001892,51.889404 417.012146,52.666496 
	C416.853180,53.000378 416.685883,53.001247 416.268219,53.007057 
	C416.002502,52.557625 415.987152,52.103264 416.009827,51.309364 
z"/>
<path fill="#F6B2B4" opacity="1.000000" stroke="none" 
	d="
M68.273987,56.893490 
	C68.223404,55.877815 68.172821,54.862137 68.409698,53.441219 
	C68.697159,53.035976 69.169098,52.986744 69.169098,52.986740 
	C79.679924,53.289890 90.190170,53.616070 100.701889,53.884300 
	C104.644913,53.984917 108.591751,54.000332 112.536186,53.969608 
	C130.329163,53.831024 148.121826,53.551464 165.914749,53.538383 
	C180.520157,53.527645 195.125961,53.905048 209.731049,53.871223 
	C211.538162,53.867039 213.341843,52.390823 215.364197,51.323524 
	C215.703293,52.423889 215.825287,53.797451 215.528809,55.769966 
	C213.651566,56.578159 212.192902,56.969585 210.734055,56.970222 
	C163.504150,56.990818 116.274239,56.973751 68.851852,56.943893 
	C68.659378,56.925468 68.273987,56.893490 68.273987,56.893490 
z"/>
<path fill="#F79194" opacity="1.000000" stroke="none" 
	d="
M69.101929,52.705864 
	C69.169098,52.986744 68.697159,53.035976 68.462059,53.062500 
	C68.126099,52.738293 68.197380,52.427006 68.646362,52.016129 
	C68.912872,52.059719 68.973816,52.242352 69.101929,52.705864 
z"/>
<path fill="#F79194" opacity="1.000000" stroke="none" 
	d="
M68.715759,60.089294 
	C68.568024,59.806988 68.629532,59.421299 69.167526,59.219604 
	C72.767059,59.869030 76.596764,57.060406 79.015900,60.972122 
	C75.985214,60.980282 72.954536,60.988441 69.471375,60.993111 
	C68.967102,60.783619 68.915298,60.577610 68.715759,60.089294 
z"/>
<path fill="#F59D9F" opacity="1.000000" stroke="none" 
	d="
M79.481888,60.978035 
	C76.596764,57.060406 72.767059,59.869030 69.230675,59.034821 
	C68.755836,59.051723 68.697266,58.717075 68.819138,58.197422 
	C68.975449,57.439285 69.009888,57.200798 69.044327,56.962315 
	C116.274239,56.973751 163.504150,56.990818 210.734055,56.970222 
	C212.192902,56.969585 213.651566,56.578159 215.471924,56.185043 
	C215.873077,56.448399 215.912613,56.895622 215.622192,57.837540 
	C213.786758,58.557098 212.236465,58.627483 210.787613,59.047649 
	C209.138977,59.525764 207.580933,60.316227 205.983505,60.970924 
	C197.306122,60.973820 188.628723,60.976711 179.386353,60.582581 
	C177.815933,59.791786 176.812195,59.060047 175.804794,59.055016 
	C160.998016,58.981049 146.190353,58.960682 131.384293,59.088600 
	C130.245468,59.098442 129.117081,60.315399 127.983849,60.971283 
	C123.969254,60.974033 119.954651,60.976784 115.380768,60.582626 
	C108.728615,59.992821 102.635994,59.788288 96.541718,59.664959 
	C96.364647,59.661377 96.170197,60.516529 95.983849,60.971283 
	C90.638527,60.975502 85.293205,60.979721 79.481888,60.978035 
z"/>
<path fill="#F79194" opacity="1.000000" stroke="none" 
	d="
M128.453979,60.982563 
	C129.117081,60.315399 130.245468,59.098442 131.384293,59.088600 
	C146.190353,58.960682 160.998016,58.981049 175.804794,59.055016 
	C176.812195,59.060047 177.815933,59.791786 178.918732,60.578316 
	C162.318756,60.978661 145.621429,60.986248 128.453979,60.982563 
z"/>
<path fill="#F79194" opacity="1.000000" stroke="none" 
	d="
M96.453598,60.982559 
	C96.170197,60.516529 96.364647,59.661377 96.541718,59.664959 
	C102.635994,59.788288 108.728615,59.992821 114.918793,60.578400 
	C108.985184,60.978661 102.954269,60.986244 96.453598,60.982559 
z"/>
<path fill="#F79194" opacity="1.000000" stroke="none" 
	d="
M206.437027,60.982040 
	C207.580933,60.316227 209.138977,59.525764 210.787613,59.047649 
	C212.236465,58.627483 213.786758,58.557098 215.576294,58.172543 
	C215.892166,58.751423 215.924011,59.489998 215.909927,60.596046 
	C212.872849,60.973396 209.881699,60.983276 206.437027,60.982040 
z"/>
<path fill="#F79194" opacity="1.000000" stroke="none" 
	d="
M68.851852,56.943893 
	C69.009888,57.200798 68.975449,57.439285 68.864700,58.033783 
	C68.596748,58.076839 68.405090,57.763889 68.243713,57.172215 
	C68.273987,56.893490 68.659378,56.925468 68.851852,56.943893 
z"/>
</svg>